M48
; DRILL file {KiCad 9.0.0} date 2025-04-03T15:02:05-0400
; FORMAT={-:-/ absolute / metric / decimal}
; #@! TF.CreationDate,2025-04-03T15:02:05-04:00
; #@! TF.GenerationSoftware,Kicad,Pcbnew,9.0.0
; #@! TF.FileFunction,Plated,1,2,PTH
FMAT,2
METRIC
; #@! TA.AperFunction,Plated,PTH,ComponentDrill
T1C0.762
; #@! TA.AperFunction,Plated,PTH,ComponentDrill
T2C0.800
; #@! TA.AperFunction,Plated,PTH,ComponentDrill
T3C0.900
; #@! TA.AperFunction,Plated,PTH,ComponentDrill
T4C1.000
%
G90
G05
T1
X117.78Y-86.38
X117.78Y-88.38
X117.78Y-90.38
X117.78Y-92.38
T2
X103.5Y-75.34
X103.5Y-85.5
X109.5Y-75.42
X109.5Y-85.58
X122.86Y-64.44
X122.86Y-71.115
X133.02Y-64.44
X133.02Y-71.115
X140.64Y-54.28
X140.64Y-59.36
X140.64Y-64.44
X140.64Y-69.52
X150.8Y-54.28
X150.8Y-59.36
X150.8Y-64.44
X150.8Y-69.52
X158.42Y-60.63
X158.42Y-63.17
X158.42Y-65.71
X158.42Y-68.25
X160.96Y-60.63
X160.96Y-63.17
X160.96Y-65.71
X160.96Y-68.25
T3
X120.32Y-56.82
X122.86Y-56.82
X127.94Y-56.82
X130.48Y-56.82
T4
X117.86Y-77.14
X118.796Y-49.2
X121.336Y-49.2
X122.86Y-77.14
X123.876Y-49.2
X126.416Y-49.2
X127.94Y-97.46
X128.956Y-49.2
X130.48Y-87.3
X130.48Y-97.46
X131.496Y-49.2
X133.02Y-97.46
X134.036Y-49.2
X135.48Y-87.3
X135.56Y-97.46
X136.576Y-49.2
X138.1Y-97.46
X139.116Y-49.2
X140.64Y-97.46
X141.656Y-49.2
X143.18Y-87.3
X143.18Y-97.46
X145.72Y-49.2
X145.72Y-97.46
X148.18Y-87.3
X148.26Y-49.2
X150.8Y-49.2
X150.8Y-97.46
X153.34Y-49.2
X153.34Y-97.46
X155.88Y-49.2
X155.88Y-97.46
X158.42Y-49.2
X158.42Y-97.46
X160.96Y-49.2
X160.96Y-97.46
X163.5Y-49.2
X163.5Y-97.46
M30
