%TF.GenerationSoftware,KiCad,Pcbnew,9.0.0*%
%TF.CreationDate,2025-04-03T15:02:05-04:00*%
%TF.ProjectId,Shield,53686965-6c64-42e6-9b69-6361645f7063,rev?*%
%TF.SameCoordinates,Original*%
%TF.FileFunction,Drillmap*%
%TF.FilePolarity,Positive*%
%FSLAX45Y45*%
G04 Gerber Fmt 4.5, Leading zero omitted, Abs format (unit mm)*
G04 Created by KiCad (PCBNEW 9.0.0) date 2025-04-03 15:02:05*
%MOMM*%
%LPD*%
G01*
G04 APERTURE LIST*
%ADD10C,0.150000*%
%ADD11C,0.200000*%
%ADD12C,0.100000*%
G04 APERTURE END LIST*
D10*
X16604000Y-5936000D02*
X16858000Y-6190000D01*
X10000000Y-9923800D02*
X10000000Y-4742200D01*
X16858000Y-6190000D02*
X16858000Y-9619000D01*
X16527800Y-10000000D02*
X10076200Y-10000000D01*
X10076200Y-4666000D02*
X16350000Y-4666000D01*
X10076200Y-10000000D02*
G75*
G02*
X10000000Y-9923800I0J76200D01*
G01*
X16858000Y-9619000D02*
X16604000Y-9873000D01*
X16350000Y-4666000D02*
X16604000Y-4920000D01*
X16604000Y-9923800D02*
G75*
G02*
X16527800Y-10000000I-76200J0D01*
G01*
X16604000Y-4920000D02*
X16604000Y-5936000D01*
X16604000Y-9873000D02*
X16604000Y-9923800D01*
X10000000Y-4742200D02*
G75*
G02*
X10076200Y-4666000I76200J0D01*
G01*
D11*
D12*
X11739900Y-8599900D02*
X11816100Y-8676100D01*
X11816100Y-8599900D02*
X11739900Y-8676100D01*
X11739900Y-8799900D02*
X11816100Y-8876100D01*
X11816100Y-8799900D02*
X11739900Y-8876100D01*
X11739900Y-8999900D02*
X11816100Y-9076100D01*
X11816100Y-8999900D02*
X11739900Y-9076100D01*
X11739900Y-9199900D02*
X11816100Y-9276100D01*
X11816100Y-9199900D02*
X11739900Y-9276100D01*
X10390000Y-7534000D02*
G75*
G02*
X10310000Y-7534000I-40000J0D01*
G01*
X10310000Y-7534000D02*
G75*
G02*
X10390000Y-7534000I40000J0D01*
G01*
X10390000Y-8550000D02*
G75*
G02*
X10310000Y-8550000I-40000J0D01*
G01*
X10310000Y-8550000D02*
G75*
G02*
X10390000Y-8550000I40000J0D01*
G01*
X10990000Y-7542000D02*
G75*
G02*
X10910000Y-7542000I-40000J0D01*
G01*
X10910000Y-7542000D02*
G75*
G02*
X10990000Y-7542000I40000J0D01*
G01*
X10990000Y-8558000D02*
G75*
G02*
X10910000Y-8558000I-40000J0D01*
G01*
X10910000Y-8558000D02*
G75*
G02*
X10990000Y-8558000I40000J0D01*
G01*
X12326000Y-6444000D02*
G75*
G02*
X12246000Y-6444000I-40000J0D01*
G01*
X12246000Y-6444000D02*
G75*
G02*
X12326000Y-6444000I40000J0D01*
G01*
X12326000Y-7111500D02*
G75*
G02*
X12246000Y-7111500I-40000J0D01*
G01*
X12246000Y-7111500D02*
G75*
G02*
X12326000Y-7111500I40000J0D01*
G01*
X13342000Y-6444000D02*
G75*
G02*
X13262000Y-6444000I-40000J0D01*
G01*
X13262000Y-6444000D02*
G75*
G02*
X13342000Y-6444000I40000J0D01*
G01*
X13342000Y-7111500D02*
G75*
G02*
X13262000Y-7111500I-40000J0D01*
G01*
X13262000Y-7111500D02*
G75*
G02*
X13342000Y-7111500I40000J0D01*
G01*
X14104000Y-5428000D02*
G75*
G02*
X14024000Y-5428000I-40000J0D01*
G01*
X14024000Y-5428000D02*
G75*
G02*
X14104000Y-5428000I40000J0D01*
G01*
X14104000Y-5936000D02*
G75*
G02*
X14024000Y-5936000I-40000J0D01*
G01*
X14024000Y-5936000D02*
G75*
G02*
X14104000Y-5936000I40000J0D01*
G01*
X14104000Y-6444000D02*
G75*
G02*
X14024000Y-6444000I-40000J0D01*
G01*
X14024000Y-6444000D02*
G75*
G02*
X14104000Y-6444000I40000J0D01*
G01*
X14104000Y-6952000D02*
G75*
G02*
X14024000Y-6952000I-40000J0D01*
G01*
X14024000Y-6952000D02*
G75*
G02*
X14104000Y-6952000I40000J0D01*
G01*
X15120000Y-5428000D02*
G75*
G02*
X15040000Y-5428000I-40000J0D01*
G01*
X15040000Y-5428000D02*
G75*
G02*
X15120000Y-5428000I40000J0D01*
G01*
X15120000Y-5936000D02*
G75*
G02*
X15040000Y-5936000I-40000J0D01*
G01*
X15040000Y-5936000D02*
G75*
G02*
X15120000Y-5936000I40000J0D01*
G01*
X15120000Y-6444000D02*
G75*
G02*
X15040000Y-6444000I-40000J0D01*
G01*
X15040000Y-6444000D02*
G75*
G02*
X15120000Y-6444000I40000J0D01*
G01*
X15120000Y-6952000D02*
G75*
G02*
X15040000Y-6952000I-40000J0D01*
G01*
X15040000Y-6952000D02*
G75*
G02*
X15120000Y-6952000I40000J0D01*
G01*
X15882000Y-6063000D02*
G75*
G02*
X15802000Y-6063000I-40000J0D01*
G01*
X15802000Y-6063000D02*
G75*
G02*
X15882000Y-6063000I40000J0D01*
G01*
X15882000Y-6317000D02*
G75*
G02*
X15802000Y-6317000I-40000J0D01*
G01*
X15802000Y-6317000D02*
G75*
G02*
X15882000Y-6317000I40000J0D01*
G01*
X15882000Y-6571000D02*
G75*
G02*
X15802000Y-6571000I-40000J0D01*
G01*
X15802000Y-6571000D02*
G75*
G02*
X15882000Y-6571000I40000J0D01*
G01*
X15882000Y-6825000D02*
G75*
G02*
X15802000Y-6825000I-40000J0D01*
G01*
X15802000Y-6825000D02*
G75*
G02*
X15882000Y-6825000I40000J0D01*
G01*
X16136000Y-6063000D02*
G75*
G02*
X16056000Y-6063000I-40000J0D01*
G01*
X16056000Y-6063000D02*
G75*
G02*
X16136000Y-6063000I40000J0D01*
G01*
X16136000Y-6317000D02*
G75*
G02*
X16056000Y-6317000I-40000J0D01*
G01*
X16056000Y-6317000D02*
G75*
G02*
X16136000Y-6317000I40000J0D01*
G01*
X16136000Y-6571000D02*
G75*
G02*
X16056000Y-6571000I-40000J0D01*
G01*
X16056000Y-6571000D02*
G75*
G02*
X16136000Y-6571000I40000J0D01*
G01*
X16136000Y-6825000D02*
G75*
G02*
X16056000Y-6825000I-40000J0D01*
G01*
X16056000Y-6825000D02*
G75*
G02*
X16136000Y-6825000I40000J0D01*
G01*
X12032000Y-5637000D02*
X12032000Y-5727000D01*
X11987000Y-5682000D02*
X12077000Y-5682000D01*
X12286000Y-5637000D02*
X12286000Y-5727000D01*
X12241000Y-5682000D02*
X12331000Y-5682000D01*
X12794000Y-5637000D02*
X12794000Y-5727000D01*
X12749000Y-5682000D02*
X12839000Y-5682000D01*
X13048000Y-5637000D02*
X13048000Y-5727000D01*
X13003000Y-5682000D02*
X13093000Y-5682000D01*
X11821356Y-7749356D02*
X11821356Y-7678644D01*
X11750644Y-7678644D01*
X11750644Y-7749356D01*
X11821356Y-7749356D01*
X11914956Y-4955356D02*
X11914956Y-4884644D01*
X11844244Y-4884644D01*
X11844244Y-4955356D01*
X11914956Y-4955356D01*
X12168956Y-4955356D02*
X12168956Y-4884644D01*
X12098244Y-4884644D01*
X12098244Y-4955356D01*
X12168956Y-4955356D01*
X12321356Y-7749356D02*
X12321356Y-7678644D01*
X12250644Y-7678644D01*
X12250644Y-7749356D01*
X12321356Y-7749356D01*
X12422956Y-4955356D02*
X12422956Y-4884644D01*
X12352244Y-4884644D01*
X12352244Y-4955356D01*
X12422956Y-4955356D01*
X12676956Y-4955356D02*
X12676956Y-4884644D01*
X12606244Y-4884644D01*
X12606244Y-4955356D01*
X12676956Y-4955356D01*
X12829356Y-9781356D02*
X12829356Y-9710644D01*
X12758644Y-9710644D01*
X12758644Y-9781356D01*
X12829356Y-9781356D01*
X12930956Y-4955356D02*
X12930956Y-4884644D01*
X12860244Y-4884644D01*
X12860244Y-4955356D01*
X12930956Y-4955356D01*
X13083356Y-8765356D02*
X13083356Y-8694644D01*
X13012644Y-8694644D01*
X13012644Y-8765356D01*
X13083356Y-8765356D01*
X13083356Y-9781356D02*
X13083356Y-9710644D01*
X13012644Y-9710644D01*
X13012644Y-9781356D01*
X13083356Y-9781356D01*
X13184956Y-4955356D02*
X13184956Y-4884644D01*
X13114244Y-4884644D01*
X13114244Y-4955356D01*
X13184956Y-4955356D01*
X13337356Y-9781356D02*
X13337356Y-9710644D01*
X13266644Y-9710644D01*
X13266644Y-9781356D01*
X13337356Y-9781356D01*
X13438956Y-4955356D02*
X13438956Y-4884644D01*
X13368244Y-4884644D01*
X13368244Y-4955356D01*
X13438956Y-4955356D01*
X13583356Y-8765356D02*
X13583356Y-8694644D01*
X13512644Y-8694644D01*
X13512644Y-8765356D01*
X13583356Y-8765356D01*
X13591356Y-9781356D02*
X13591356Y-9710644D01*
X13520644Y-9710644D01*
X13520644Y-9781356D01*
X13591356Y-9781356D01*
X13692956Y-4955356D02*
X13692956Y-4884644D01*
X13622244Y-4884644D01*
X13622244Y-4955356D01*
X13692956Y-4955356D01*
X13845356Y-9781356D02*
X13845356Y-9710644D01*
X13774644Y-9710644D01*
X13774644Y-9781356D01*
X13845356Y-9781356D01*
X13946956Y-4955356D02*
X13946956Y-4884644D01*
X13876244Y-4884644D01*
X13876244Y-4955356D01*
X13946956Y-4955356D01*
X14099356Y-9781356D02*
X14099356Y-9710644D01*
X14028644Y-9710644D01*
X14028644Y-9781356D01*
X14099356Y-9781356D01*
X14200956Y-4955356D02*
X14200956Y-4884644D01*
X14130244Y-4884644D01*
X14130244Y-4955356D01*
X14200956Y-4955356D01*
X14353356Y-8765356D02*
X14353356Y-8694644D01*
X14282644Y-8694644D01*
X14282644Y-8765356D01*
X14353356Y-8765356D01*
X14353356Y-9781356D02*
X14353356Y-9710644D01*
X14282644Y-9710644D01*
X14282644Y-9781356D01*
X14353356Y-9781356D01*
X14607356Y-4955356D02*
X14607356Y-4884644D01*
X14536644Y-4884644D01*
X14536644Y-4955356D01*
X14607356Y-4955356D01*
X14607356Y-9781356D02*
X14607356Y-9710644D01*
X14536644Y-9710644D01*
X14536644Y-9781356D01*
X14607356Y-9781356D01*
X14853356Y-8765356D02*
X14853356Y-8694644D01*
X14782644Y-8694644D01*
X14782644Y-8765356D01*
X14853356Y-8765356D01*
X14861356Y-4955356D02*
X14861356Y-4884644D01*
X14790644Y-4884644D01*
X14790644Y-4955356D01*
X14861356Y-4955356D01*
X15115356Y-4955356D02*
X15115356Y-4884644D01*
X15044644Y-4884644D01*
X15044644Y-4955356D01*
X15115356Y-4955356D01*
X15115356Y-9781356D02*
X15115356Y-9710644D01*
X15044644Y-9710644D01*
X15044644Y-9781356D01*
X15115356Y-9781356D01*
X15369356Y-4955356D02*
X15369356Y-4884644D01*
X15298644Y-4884644D01*
X15298644Y-4955356D01*
X15369356Y-4955356D01*
X15369356Y-9781356D02*
X15369356Y-9710644D01*
X15298644Y-9710644D01*
X15298644Y-9781356D01*
X15369356Y-9781356D01*
X15623356Y-4955356D02*
X15623356Y-4884644D01*
X15552644Y-4884644D01*
X15552644Y-4955356D01*
X15623356Y-4955356D01*
X15623356Y-9781356D02*
X15623356Y-9710644D01*
X15552644Y-9710644D01*
X15552644Y-9781356D01*
X15623356Y-9781356D01*
X15877356Y-4955356D02*
X15877356Y-4884644D01*
X15806644Y-4884644D01*
X15806644Y-4955356D01*
X15877356Y-4955356D01*
X15877356Y-9781356D02*
X15877356Y-9710644D01*
X15806644Y-9710644D01*
X15806644Y-9781356D01*
X15877356Y-9781356D01*
X16131356Y-4955356D02*
X16131356Y-4884644D01*
X16060644Y-4884644D01*
X16060644Y-4955356D01*
X16131356Y-4955356D01*
X16131356Y-9781356D02*
X16131356Y-9710644D01*
X16060644Y-9710644D01*
X16060644Y-9781356D01*
X16131356Y-9781356D01*
X16385356Y-4955356D02*
X16385356Y-4884644D01*
X16314644Y-4884644D01*
X16314644Y-4955356D01*
X16385356Y-4955356D01*
X16385356Y-9781356D02*
X16385356Y-9710644D01*
X16314644Y-9710644D01*
X16314644Y-9781356D01*
X16385356Y-9781356D01*
D11*
X10253277Y-10318984D02*
X10253277Y-10118984D01*
X10253277Y-10118984D02*
X10300896Y-10118984D01*
X10300896Y-10118984D02*
X10329467Y-10128508D01*
X10329467Y-10128508D02*
X10348515Y-10147555D01*
X10348515Y-10147555D02*
X10358039Y-10166603D01*
X10358039Y-10166603D02*
X10367563Y-10204698D01*
X10367563Y-10204698D02*
X10367563Y-10233270D01*
X10367563Y-10233270D02*
X10358039Y-10271365D01*
X10358039Y-10271365D02*
X10348515Y-10290412D01*
X10348515Y-10290412D02*
X10329467Y-10309460D01*
X10329467Y-10309460D02*
X10300896Y-10318984D01*
X10300896Y-10318984D02*
X10253277Y-10318984D01*
X10453277Y-10318984D02*
X10453277Y-10185650D01*
X10453277Y-10223746D02*
X10462801Y-10204698D01*
X10462801Y-10204698D02*
X10472324Y-10195174D01*
X10472324Y-10195174D02*
X10491372Y-10185650D01*
X10491372Y-10185650D02*
X10510420Y-10185650D01*
X10577086Y-10318984D02*
X10577086Y-10185650D01*
X10577086Y-10118984D02*
X10567563Y-10128508D01*
X10567563Y-10128508D02*
X10577086Y-10138031D01*
X10577086Y-10138031D02*
X10586610Y-10128508D01*
X10586610Y-10128508D02*
X10577086Y-10118984D01*
X10577086Y-10118984D02*
X10577086Y-10138031D01*
X10700896Y-10318984D02*
X10681848Y-10309460D01*
X10681848Y-10309460D02*
X10672324Y-10290412D01*
X10672324Y-10290412D02*
X10672324Y-10118984D01*
X10805658Y-10318984D02*
X10786610Y-10309460D01*
X10786610Y-10309460D02*
X10777086Y-10290412D01*
X10777086Y-10290412D02*
X10777086Y-10118984D01*
X11034229Y-10318984D02*
X11034229Y-10118984D01*
X11034229Y-10118984D02*
X11100896Y-10261841D01*
X11100896Y-10261841D02*
X11167563Y-10118984D01*
X11167563Y-10118984D02*
X11167563Y-10318984D01*
X11348515Y-10318984D02*
X11348515Y-10214222D01*
X11348515Y-10214222D02*
X11338991Y-10195174D01*
X11338991Y-10195174D02*
X11319943Y-10185650D01*
X11319943Y-10185650D02*
X11281848Y-10185650D01*
X11281848Y-10185650D02*
X11262801Y-10195174D01*
X11348515Y-10309460D02*
X11329467Y-10318984D01*
X11329467Y-10318984D02*
X11281848Y-10318984D01*
X11281848Y-10318984D02*
X11262801Y-10309460D01*
X11262801Y-10309460D02*
X11253277Y-10290412D01*
X11253277Y-10290412D02*
X11253277Y-10271365D01*
X11253277Y-10271365D02*
X11262801Y-10252317D01*
X11262801Y-10252317D02*
X11281848Y-10242793D01*
X11281848Y-10242793D02*
X11329467Y-10242793D01*
X11329467Y-10242793D02*
X11348515Y-10233270D01*
X11443753Y-10185650D02*
X11443753Y-10385650D01*
X11443753Y-10195174D02*
X11462801Y-10185650D01*
X11462801Y-10185650D02*
X11500896Y-10185650D01*
X11500896Y-10185650D02*
X11519943Y-10195174D01*
X11519943Y-10195174D02*
X11529467Y-10204698D01*
X11529467Y-10204698D02*
X11538991Y-10223746D01*
X11538991Y-10223746D02*
X11538991Y-10280889D01*
X11538991Y-10280889D02*
X11529467Y-10299936D01*
X11529467Y-10299936D02*
X11519943Y-10309460D01*
X11519943Y-10309460D02*
X11500896Y-10318984D01*
X11500896Y-10318984D02*
X11462801Y-10318984D01*
X11462801Y-10318984D02*
X11443753Y-10309460D01*
X11624705Y-10299936D02*
X11634229Y-10309460D01*
X11634229Y-10309460D02*
X11624705Y-10318984D01*
X11624705Y-10318984D02*
X11615182Y-10309460D01*
X11615182Y-10309460D02*
X11624705Y-10299936D01*
X11624705Y-10299936D02*
X11624705Y-10318984D01*
X11624705Y-10195174D02*
X11634229Y-10204698D01*
X11634229Y-10204698D02*
X11624705Y-10214222D01*
X11624705Y-10214222D02*
X11615182Y-10204698D01*
X11615182Y-10204698D02*
X11624705Y-10195174D01*
X11624705Y-10195174D02*
X11624705Y-10214222D01*
D12*
X9916300Y-10609400D02*
X9992500Y-10685600D01*
X9992500Y-10609400D02*
X9916300Y-10685600D01*
D11*
X10291372Y-10538984D02*
X10310420Y-10538984D01*
X10310420Y-10538984D02*
X10329467Y-10548508D01*
X10329467Y-10548508D02*
X10338991Y-10558031D01*
X10338991Y-10558031D02*
X10348515Y-10577079D01*
X10348515Y-10577079D02*
X10358039Y-10615174D01*
X10358039Y-10615174D02*
X10358039Y-10662793D01*
X10358039Y-10662793D02*
X10348515Y-10700889D01*
X10348515Y-10700889D02*
X10338991Y-10719936D01*
X10338991Y-10719936D02*
X10329467Y-10729460D01*
X10329467Y-10729460D02*
X10310420Y-10738984D01*
X10310420Y-10738984D02*
X10291372Y-10738984D01*
X10291372Y-10738984D02*
X10272324Y-10729460D01*
X10272324Y-10729460D02*
X10262801Y-10719936D01*
X10262801Y-10719936D02*
X10253277Y-10700889D01*
X10253277Y-10700889D02*
X10243753Y-10662793D01*
X10243753Y-10662793D02*
X10243753Y-10615174D01*
X10243753Y-10615174D02*
X10253277Y-10577079D01*
X10253277Y-10577079D02*
X10262801Y-10558031D01*
X10262801Y-10558031D02*
X10272324Y-10548508D01*
X10272324Y-10548508D02*
X10291372Y-10538984D01*
X10443753Y-10719936D02*
X10453277Y-10729460D01*
X10453277Y-10729460D02*
X10443753Y-10738984D01*
X10443753Y-10738984D02*
X10434229Y-10729460D01*
X10434229Y-10729460D02*
X10443753Y-10719936D01*
X10443753Y-10719936D02*
X10443753Y-10738984D01*
X10519944Y-10538984D02*
X10653277Y-10538984D01*
X10653277Y-10538984D02*
X10567563Y-10738984D01*
X10815182Y-10538984D02*
X10777086Y-10538984D01*
X10777086Y-10538984D02*
X10758039Y-10548508D01*
X10758039Y-10548508D02*
X10748515Y-10558031D01*
X10748515Y-10558031D02*
X10729467Y-10586603D01*
X10729467Y-10586603D02*
X10719944Y-10624698D01*
X10719944Y-10624698D02*
X10719944Y-10700889D01*
X10719944Y-10700889D02*
X10729467Y-10719936D01*
X10729467Y-10719936D02*
X10738991Y-10729460D01*
X10738991Y-10729460D02*
X10758039Y-10738984D01*
X10758039Y-10738984D02*
X10796134Y-10738984D01*
X10796134Y-10738984D02*
X10815182Y-10729460D01*
X10815182Y-10729460D02*
X10824705Y-10719936D01*
X10824705Y-10719936D02*
X10834229Y-10700889D01*
X10834229Y-10700889D02*
X10834229Y-10653270D01*
X10834229Y-10653270D02*
X10824705Y-10634222D01*
X10824705Y-10634222D02*
X10815182Y-10624698D01*
X10815182Y-10624698D02*
X10796134Y-10615174D01*
X10796134Y-10615174D02*
X10758039Y-10615174D01*
X10758039Y-10615174D02*
X10738991Y-10624698D01*
X10738991Y-10624698D02*
X10729467Y-10634222D01*
X10729467Y-10634222D02*
X10719944Y-10653270D01*
X10910420Y-10558031D02*
X10919944Y-10548508D01*
X10919944Y-10548508D02*
X10938991Y-10538984D01*
X10938991Y-10538984D02*
X10986610Y-10538984D01*
X10986610Y-10538984D02*
X11005658Y-10548508D01*
X11005658Y-10548508D02*
X11015182Y-10558031D01*
X11015182Y-10558031D02*
X11024705Y-10577079D01*
X11024705Y-10577079D02*
X11024705Y-10596127D01*
X11024705Y-10596127D02*
X11015182Y-10624698D01*
X11015182Y-10624698D02*
X10900896Y-10738984D01*
X10900896Y-10738984D02*
X11024705Y-10738984D01*
X11110420Y-10738984D02*
X11110420Y-10605650D01*
X11110420Y-10624698D02*
X11119944Y-10615174D01*
X11119944Y-10615174D02*
X11138991Y-10605650D01*
X11138991Y-10605650D02*
X11167563Y-10605650D01*
X11167563Y-10605650D02*
X11186610Y-10615174D01*
X11186610Y-10615174D02*
X11196134Y-10634222D01*
X11196134Y-10634222D02*
X11196134Y-10738984D01*
X11196134Y-10634222D02*
X11205658Y-10615174D01*
X11205658Y-10615174D02*
X11224705Y-10605650D01*
X11224705Y-10605650D02*
X11253277Y-10605650D01*
X11253277Y-10605650D02*
X11272324Y-10615174D01*
X11272324Y-10615174D02*
X11281848Y-10634222D01*
X11281848Y-10634222D02*
X11281848Y-10738984D01*
X11377086Y-10738984D02*
X11377086Y-10605650D01*
X11377086Y-10624698D02*
X11386610Y-10615174D01*
X11386610Y-10615174D02*
X11405658Y-10605650D01*
X11405658Y-10605650D02*
X11434229Y-10605650D01*
X11434229Y-10605650D02*
X11453277Y-10615174D01*
X11453277Y-10615174D02*
X11462801Y-10634222D01*
X11462801Y-10634222D02*
X11462801Y-10738984D01*
X11462801Y-10634222D02*
X11472324Y-10615174D01*
X11472324Y-10615174D02*
X11491372Y-10605650D01*
X11491372Y-10605650D02*
X11519943Y-10605650D01*
X11519943Y-10605650D02*
X11538991Y-10615174D01*
X11538991Y-10615174D02*
X11548515Y-10634222D01*
X11548515Y-10634222D02*
X11548515Y-10738984D01*
X11938991Y-10529460D02*
X11767563Y-10786603D01*
X12196134Y-10538984D02*
X12215182Y-10538984D01*
X12215182Y-10538984D02*
X12234229Y-10548508D01*
X12234229Y-10548508D02*
X12243753Y-10558031D01*
X12243753Y-10558031D02*
X12253277Y-10577079D01*
X12253277Y-10577079D02*
X12262801Y-10615174D01*
X12262801Y-10615174D02*
X12262801Y-10662793D01*
X12262801Y-10662793D02*
X12253277Y-10700889D01*
X12253277Y-10700889D02*
X12243753Y-10719936D01*
X12243753Y-10719936D02*
X12234229Y-10729460D01*
X12234229Y-10729460D02*
X12215182Y-10738984D01*
X12215182Y-10738984D02*
X12196134Y-10738984D01*
X12196134Y-10738984D02*
X12177086Y-10729460D01*
X12177086Y-10729460D02*
X12167563Y-10719936D01*
X12167563Y-10719936D02*
X12158039Y-10700889D01*
X12158039Y-10700889D02*
X12148515Y-10662793D01*
X12148515Y-10662793D02*
X12148515Y-10615174D01*
X12148515Y-10615174D02*
X12158039Y-10577079D01*
X12158039Y-10577079D02*
X12167563Y-10558031D01*
X12167563Y-10558031D02*
X12177086Y-10548508D01*
X12177086Y-10548508D02*
X12196134Y-10538984D01*
X12348515Y-10719936D02*
X12358039Y-10729460D01*
X12358039Y-10729460D02*
X12348515Y-10738984D01*
X12348515Y-10738984D02*
X12338991Y-10729460D01*
X12338991Y-10729460D02*
X12348515Y-10719936D01*
X12348515Y-10719936D02*
X12348515Y-10738984D01*
X12481848Y-10538984D02*
X12500896Y-10538984D01*
X12500896Y-10538984D02*
X12519944Y-10548508D01*
X12519944Y-10548508D02*
X12529467Y-10558031D01*
X12529467Y-10558031D02*
X12538991Y-10577079D01*
X12538991Y-10577079D02*
X12548515Y-10615174D01*
X12548515Y-10615174D02*
X12548515Y-10662793D01*
X12548515Y-10662793D02*
X12538991Y-10700889D01*
X12538991Y-10700889D02*
X12529467Y-10719936D01*
X12529467Y-10719936D02*
X12519944Y-10729460D01*
X12519944Y-10729460D02*
X12500896Y-10738984D01*
X12500896Y-10738984D02*
X12481848Y-10738984D01*
X12481848Y-10738984D02*
X12462801Y-10729460D01*
X12462801Y-10729460D02*
X12453277Y-10719936D01*
X12453277Y-10719936D02*
X12443753Y-10700889D01*
X12443753Y-10700889D02*
X12434229Y-10662793D01*
X12434229Y-10662793D02*
X12434229Y-10615174D01*
X12434229Y-10615174D02*
X12443753Y-10577079D01*
X12443753Y-10577079D02*
X12453277Y-10558031D01*
X12453277Y-10558031D02*
X12462801Y-10548508D01*
X12462801Y-10548508D02*
X12481848Y-10538984D01*
X12615182Y-10538984D02*
X12738991Y-10538984D01*
X12738991Y-10538984D02*
X12672325Y-10615174D01*
X12672325Y-10615174D02*
X12700896Y-10615174D01*
X12700896Y-10615174D02*
X12719944Y-10624698D01*
X12719944Y-10624698D02*
X12729467Y-10634222D01*
X12729467Y-10634222D02*
X12738991Y-10653270D01*
X12738991Y-10653270D02*
X12738991Y-10700889D01*
X12738991Y-10700889D02*
X12729467Y-10719936D01*
X12729467Y-10719936D02*
X12719944Y-10729460D01*
X12719944Y-10729460D02*
X12700896Y-10738984D01*
X12700896Y-10738984D02*
X12643753Y-10738984D01*
X12643753Y-10738984D02*
X12624706Y-10729460D01*
X12624706Y-10729460D02*
X12615182Y-10719936D01*
X12862801Y-10538984D02*
X12881848Y-10538984D01*
X12881848Y-10538984D02*
X12900896Y-10548508D01*
X12900896Y-10548508D02*
X12910420Y-10558031D01*
X12910420Y-10558031D02*
X12919944Y-10577079D01*
X12919944Y-10577079D02*
X12929467Y-10615174D01*
X12929467Y-10615174D02*
X12929467Y-10662793D01*
X12929467Y-10662793D02*
X12919944Y-10700889D01*
X12919944Y-10700889D02*
X12910420Y-10719936D01*
X12910420Y-10719936D02*
X12900896Y-10729460D01*
X12900896Y-10729460D02*
X12881848Y-10738984D01*
X12881848Y-10738984D02*
X12862801Y-10738984D01*
X12862801Y-10738984D02*
X12843753Y-10729460D01*
X12843753Y-10729460D02*
X12834229Y-10719936D01*
X12834229Y-10719936D02*
X12824706Y-10700889D01*
X12824706Y-10700889D02*
X12815182Y-10662793D01*
X12815182Y-10662793D02*
X12815182Y-10615174D01*
X12815182Y-10615174D02*
X12824706Y-10577079D01*
X12824706Y-10577079D02*
X12834229Y-10558031D01*
X12834229Y-10558031D02*
X12843753Y-10548508D01*
X12843753Y-10548508D02*
X12862801Y-10538984D01*
X13053277Y-10538984D02*
X13072325Y-10538984D01*
X13072325Y-10538984D02*
X13091372Y-10548508D01*
X13091372Y-10548508D02*
X13100896Y-10558031D01*
X13100896Y-10558031D02*
X13110420Y-10577079D01*
X13110420Y-10577079D02*
X13119944Y-10615174D01*
X13119944Y-10615174D02*
X13119944Y-10662793D01*
X13119944Y-10662793D02*
X13110420Y-10700889D01*
X13110420Y-10700889D02*
X13100896Y-10719936D01*
X13100896Y-10719936D02*
X13091372Y-10729460D01*
X13091372Y-10729460D02*
X13072325Y-10738984D01*
X13072325Y-10738984D02*
X13053277Y-10738984D01*
X13053277Y-10738984D02*
X13034229Y-10729460D01*
X13034229Y-10729460D02*
X13024706Y-10719936D01*
X13024706Y-10719936D02*
X13015182Y-10700889D01*
X13015182Y-10700889D02*
X13005658Y-10662793D01*
X13005658Y-10662793D02*
X13005658Y-10615174D01*
X13005658Y-10615174D02*
X13015182Y-10577079D01*
X13015182Y-10577079D02*
X13024706Y-10558031D01*
X13024706Y-10558031D02*
X13034229Y-10548508D01*
X13034229Y-10548508D02*
X13053277Y-10538984D01*
X13196134Y-10538984D02*
X13196134Y-10577079D01*
X13272325Y-10538984D02*
X13272325Y-10577079D01*
X13567563Y-10815174D02*
X13558039Y-10805650D01*
X13558039Y-10805650D02*
X13538991Y-10777079D01*
X13538991Y-10777079D02*
X13529468Y-10758031D01*
X13529468Y-10758031D02*
X13519944Y-10729460D01*
X13519944Y-10729460D02*
X13510420Y-10681841D01*
X13510420Y-10681841D02*
X13510420Y-10643746D01*
X13510420Y-10643746D02*
X13519944Y-10596127D01*
X13519944Y-10596127D02*
X13529468Y-10567555D01*
X13529468Y-10567555D02*
X13538991Y-10548508D01*
X13538991Y-10548508D02*
X13558039Y-10519936D01*
X13558039Y-10519936D02*
X13567563Y-10510412D01*
X13729468Y-10605650D02*
X13729468Y-10738984D01*
X13681848Y-10529460D02*
X13634229Y-10672317D01*
X13634229Y-10672317D02*
X13758039Y-10672317D01*
X13986610Y-10738984D02*
X13986610Y-10538984D01*
X14072325Y-10738984D02*
X14072325Y-10634222D01*
X14072325Y-10634222D02*
X14062801Y-10615174D01*
X14062801Y-10615174D02*
X14043753Y-10605650D01*
X14043753Y-10605650D02*
X14015182Y-10605650D01*
X14015182Y-10605650D02*
X13996134Y-10615174D01*
X13996134Y-10615174D02*
X13986610Y-10624698D01*
X14196134Y-10738984D02*
X14177087Y-10729460D01*
X14177087Y-10729460D02*
X14167563Y-10719936D01*
X14167563Y-10719936D02*
X14158039Y-10700889D01*
X14158039Y-10700889D02*
X14158039Y-10643746D01*
X14158039Y-10643746D02*
X14167563Y-10624698D01*
X14167563Y-10624698D02*
X14177087Y-10615174D01*
X14177087Y-10615174D02*
X14196134Y-10605650D01*
X14196134Y-10605650D02*
X14224706Y-10605650D01*
X14224706Y-10605650D02*
X14243753Y-10615174D01*
X14243753Y-10615174D02*
X14253277Y-10624698D01*
X14253277Y-10624698D02*
X14262801Y-10643746D01*
X14262801Y-10643746D02*
X14262801Y-10700889D01*
X14262801Y-10700889D02*
X14253277Y-10719936D01*
X14253277Y-10719936D02*
X14243753Y-10729460D01*
X14243753Y-10729460D02*
X14224706Y-10738984D01*
X14224706Y-10738984D02*
X14196134Y-10738984D01*
X14377087Y-10738984D02*
X14358039Y-10729460D01*
X14358039Y-10729460D02*
X14348515Y-10710412D01*
X14348515Y-10710412D02*
X14348515Y-10538984D01*
X14529468Y-10729460D02*
X14510420Y-10738984D01*
X14510420Y-10738984D02*
X14472325Y-10738984D01*
X14472325Y-10738984D02*
X14453277Y-10729460D01*
X14453277Y-10729460D02*
X14443753Y-10710412D01*
X14443753Y-10710412D02*
X14443753Y-10634222D01*
X14443753Y-10634222D02*
X14453277Y-10615174D01*
X14453277Y-10615174D02*
X14472325Y-10605650D01*
X14472325Y-10605650D02*
X14510420Y-10605650D01*
X14510420Y-10605650D02*
X14529468Y-10615174D01*
X14529468Y-10615174D02*
X14538991Y-10634222D01*
X14538991Y-10634222D02*
X14538991Y-10653270D01*
X14538991Y-10653270D02*
X14443753Y-10672317D01*
X14615182Y-10729460D02*
X14634230Y-10738984D01*
X14634230Y-10738984D02*
X14672325Y-10738984D01*
X14672325Y-10738984D02*
X14691372Y-10729460D01*
X14691372Y-10729460D02*
X14700896Y-10710412D01*
X14700896Y-10710412D02*
X14700896Y-10700889D01*
X14700896Y-10700889D02*
X14691372Y-10681841D01*
X14691372Y-10681841D02*
X14672325Y-10672317D01*
X14672325Y-10672317D02*
X14643753Y-10672317D01*
X14643753Y-10672317D02*
X14624706Y-10662793D01*
X14624706Y-10662793D02*
X14615182Y-10643746D01*
X14615182Y-10643746D02*
X14615182Y-10634222D01*
X14615182Y-10634222D02*
X14624706Y-10615174D01*
X14624706Y-10615174D02*
X14643753Y-10605650D01*
X14643753Y-10605650D02*
X14672325Y-10605650D01*
X14672325Y-10605650D02*
X14691372Y-10615174D01*
X14767563Y-10815174D02*
X14777087Y-10805650D01*
X14777087Y-10805650D02*
X14796134Y-10777079D01*
X14796134Y-10777079D02*
X14805658Y-10758031D01*
X14805658Y-10758031D02*
X14815182Y-10729460D01*
X14815182Y-10729460D02*
X14824706Y-10681841D01*
X14824706Y-10681841D02*
X14824706Y-10643746D01*
X14824706Y-10643746D02*
X14815182Y-10596127D01*
X14815182Y-10596127D02*
X14805658Y-10567555D01*
X14805658Y-10567555D02*
X14796134Y-10548508D01*
X14796134Y-10548508D02*
X14777087Y-10519936D01*
X14777087Y-10519936D02*
X14767563Y-10510412D01*
D12*
X9992500Y-10911500D02*
G75*
G02*
X9912500Y-10911500I-40000J0D01*
G01*
X9912500Y-10911500D02*
G75*
G02*
X9992500Y-10911500I40000J0D01*
G01*
D11*
X10291372Y-10802984D02*
X10310420Y-10802984D01*
X10310420Y-10802984D02*
X10329467Y-10812508D01*
X10329467Y-10812508D02*
X10338991Y-10822031D01*
X10338991Y-10822031D02*
X10348515Y-10841079D01*
X10348515Y-10841079D02*
X10358039Y-10879174D01*
X10358039Y-10879174D02*
X10358039Y-10926793D01*
X10358039Y-10926793D02*
X10348515Y-10964889D01*
X10348515Y-10964889D02*
X10338991Y-10983936D01*
X10338991Y-10983936D02*
X10329467Y-10993460D01*
X10329467Y-10993460D02*
X10310420Y-11002984D01*
X10310420Y-11002984D02*
X10291372Y-11002984D01*
X10291372Y-11002984D02*
X10272324Y-10993460D01*
X10272324Y-10993460D02*
X10262801Y-10983936D01*
X10262801Y-10983936D02*
X10253277Y-10964889D01*
X10253277Y-10964889D02*
X10243753Y-10926793D01*
X10243753Y-10926793D02*
X10243753Y-10879174D01*
X10243753Y-10879174D02*
X10253277Y-10841079D01*
X10253277Y-10841079D02*
X10262801Y-10822031D01*
X10262801Y-10822031D02*
X10272324Y-10812508D01*
X10272324Y-10812508D02*
X10291372Y-10802984D01*
X10443753Y-10983936D02*
X10453277Y-10993460D01*
X10453277Y-10993460D02*
X10443753Y-11002984D01*
X10443753Y-11002984D02*
X10434229Y-10993460D01*
X10434229Y-10993460D02*
X10443753Y-10983936D01*
X10443753Y-10983936D02*
X10443753Y-11002984D01*
X10567563Y-10888698D02*
X10548515Y-10879174D01*
X10548515Y-10879174D02*
X10538991Y-10869650D01*
X10538991Y-10869650D02*
X10529467Y-10850603D01*
X10529467Y-10850603D02*
X10529467Y-10841079D01*
X10529467Y-10841079D02*
X10538991Y-10822031D01*
X10538991Y-10822031D02*
X10548515Y-10812508D01*
X10548515Y-10812508D02*
X10567563Y-10802984D01*
X10567563Y-10802984D02*
X10605658Y-10802984D01*
X10605658Y-10802984D02*
X10624705Y-10812508D01*
X10624705Y-10812508D02*
X10634229Y-10822031D01*
X10634229Y-10822031D02*
X10643753Y-10841079D01*
X10643753Y-10841079D02*
X10643753Y-10850603D01*
X10643753Y-10850603D02*
X10634229Y-10869650D01*
X10634229Y-10869650D02*
X10624705Y-10879174D01*
X10624705Y-10879174D02*
X10605658Y-10888698D01*
X10605658Y-10888698D02*
X10567563Y-10888698D01*
X10567563Y-10888698D02*
X10548515Y-10898222D01*
X10548515Y-10898222D02*
X10538991Y-10907746D01*
X10538991Y-10907746D02*
X10529467Y-10926793D01*
X10529467Y-10926793D02*
X10529467Y-10964889D01*
X10529467Y-10964889D02*
X10538991Y-10983936D01*
X10538991Y-10983936D02*
X10548515Y-10993460D01*
X10548515Y-10993460D02*
X10567563Y-11002984D01*
X10567563Y-11002984D02*
X10605658Y-11002984D01*
X10605658Y-11002984D02*
X10624705Y-10993460D01*
X10624705Y-10993460D02*
X10634229Y-10983936D01*
X10634229Y-10983936D02*
X10643753Y-10964889D01*
X10643753Y-10964889D02*
X10643753Y-10926793D01*
X10643753Y-10926793D02*
X10634229Y-10907746D01*
X10634229Y-10907746D02*
X10624705Y-10898222D01*
X10624705Y-10898222D02*
X10605658Y-10888698D01*
X10767563Y-10802984D02*
X10786610Y-10802984D01*
X10786610Y-10802984D02*
X10805658Y-10812508D01*
X10805658Y-10812508D02*
X10815182Y-10822031D01*
X10815182Y-10822031D02*
X10824705Y-10841079D01*
X10824705Y-10841079D02*
X10834229Y-10879174D01*
X10834229Y-10879174D02*
X10834229Y-10926793D01*
X10834229Y-10926793D02*
X10824705Y-10964889D01*
X10824705Y-10964889D02*
X10815182Y-10983936D01*
X10815182Y-10983936D02*
X10805658Y-10993460D01*
X10805658Y-10993460D02*
X10786610Y-11002984D01*
X10786610Y-11002984D02*
X10767563Y-11002984D01*
X10767563Y-11002984D02*
X10748515Y-10993460D01*
X10748515Y-10993460D02*
X10738991Y-10983936D01*
X10738991Y-10983936D02*
X10729467Y-10964889D01*
X10729467Y-10964889D02*
X10719944Y-10926793D01*
X10719944Y-10926793D02*
X10719944Y-10879174D01*
X10719944Y-10879174D02*
X10729467Y-10841079D01*
X10729467Y-10841079D02*
X10738991Y-10822031D01*
X10738991Y-10822031D02*
X10748515Y-10812508D01*
X10748515Y-10812508D02*
X10767563Y-10802984D01*
X10958039Y-10802984D02*
X10977086Y-10802984D01*
X10977086Y-10802984D02*
X10996134Y-10812508D01*
X10996134Y-10812508D02*
X11005658Y-10822031D01*
X11005658Y-10822031D02*
X11015182Y-10841079D01*
X11015182Y-10841079D02*
X11024705Y-10879174D01*
X11024705Y-10879174D02*
X11024705Y-10926793D01*
X11024705Y-10926793D02*
X11015182Y-10964889D01*
X11015182Y-10964889D02*
X11005658Y-10983936D01*
X11005658Y-10983936D02*
X10996134Y-10993460D01*
X10996134Y-10993460D02*
X10977086Y-11002984D01*
X10977086Y-11002984D02*
X10958039Y-11002984D01*
X10958039Y-11002984D02*
X10938991Y-10993460D01*
X10938991Y-10993460D02*
X10929467Y-10983936D01*
X10929467Y-10983936D02*
X10919944Y-10964889D01*
X10919944Y-10964889D02*
X10910420Y-10926793D01*
X10910420Y-10926793D02*
X10910420Y-10879174D01*
X10910420Y-10879174D02*
X10919944Y-10841079D01*
X10919944Y-10841079D02*
X10929467Y-10822031D01*
X10929467Y-10822031D02*
X10938991Y-10812508D01*
X10938991Y-10812508D02*
X10958039Y-10802984D01*
X11110420Y-11002984D02*
X11110420Y-10869650D01*
X11110420Y-10888698D02*
X11119944Y-10879174D01*
X11119944Y-10879174D02*
X11138991Y-10869650D01*
X11138991Y-10869650D02*
X11167563Y-10869650D01*
X11167563Y-10869650D02*
X11186610Y-10879174D01*
X11186610Y-10879174D02*
X11196134Y-10898222D01*
X11196134Y-10898222D02*
X11196134Y-11002984D01*
X11196134Y-10898222D02*
X11205658Y-10879174D01*
X11205658Y-10879174D02*
X11224705Y-10869650D01*
X11224705Y-10869650D02*
X11253277Y-10869650D01*
X11253277Y-10869650D02*
X11272324Y-10879174D01*
X11272324Y-10879174D02*
X11281848Y-10898222D01*
X11281848Y-10898222D02*
X11281848Y-11002984D01*
X11377086Y-11002984D02*
X11377086Y-10869650D01*
X11377086Y-10888698D02*
X11386610Y-10879174D01*
X11386610Y-10879174D02*
X11405658Y-10869650D01*
X11405658Y-10869650D02*
X11434229Y-10869650D01*
X11434229Y-10869650D02*
X11453277Y-10879174D01*
X11453277Y-10879174D02*
X11462801Y-10898222D01*
X11462801Y-10898222D02*
X11462801Y-11002984D01*
X11462801Y-10898222D02*
X11472324Y-10879174D01*
X11472324Y-10879174D02*
X11491372Y-10869650D01*
X11491372Y-10869650D02*
X11519943Y-10869650D01*
X11519943Y-10869650D02*
X11538991Y-10879174D01*
X11538991Y-10879174D02*
X11548515Y-10898222D01*
X11548515Y-10898222D02*
X11548515Y-11002984D01*
X11938991Y-10793460D02*
X11767563Y-11050603D01*
X12196134Y-10802984D02*
X12215182Y-10802984D01*
X12215182Y-10802984D02*
X12234229Y-10812508D01*
X12234229Y-10812508D02*
X12243753Y-10822031D01*
X12243753Y-10822031D02*
X12253277Y-10841079D01*
X12253277Y-10841079D02*
X12262801Y-10879174D01*
X12262801Y-10879174D02*
X12262801Y-10926793D01*
X12262801Y-10926793D02*
X12253277Y-10964889D01*
X12253277Y-10964889D02*
X12243753Y-10983936D01*
X12243753Y-10983936D02*
X12234229Y-10993460D01*
X12234229Y-10993460D02*
X12215182Y-11002984D01*
X12215182Y-11002984D02*
X12196134Y-11002984D01*
X12196134Y-11002984D02*
X12177086Y-10993460D01*
X12177086Y-10993460D02*
X12167563Y-10983936D01*
X12167563Y-10983936D02*
X12158039Y-10964889D01*
X12158039Y-10964889D02*
X12148515Y-10926793D01*
X12148515Y-10926793D02*
X12148515Y-10879174D01*
X12148515Y-10879174D02*
X12158039Y-10841079D01*
X12158039Y-10841079D02*
X12167563Y-10822031D01*
X12167563Y-10822031D02*
X12177086Y-10812508D01*
X12177086Y-10812508D02*
X12196134Y-10802984D01*
X12348515Y-10983936D02*
X12358039Y-10993460D01*
X12358039Y-10993460D02*
X12348515Y-11002984D01*
X12348515Y-11002984D02*
X12338991Y-10993460D01*
X12338991Y-10993460D02*
X12348515Y-10983936D01*
X12348515Y-10983936D02*
X12348515Y-11002984D01*
X12481848Y-10802984D02*
X12500896Y-10802984D01*
X12500896Y-10802984D02*
X12519944Y-10812508D01*
X12519944Y-10812508D02*
X12529467Y-10822031D01*
X12529467Y-10822031D02*
X12538991Y-10841079D01*
X12538991Y-10841079D02*
X12548515Y-10879174D01*
X12548515Y-10879174D02*
X12548515Y-10926793D01*
X12548515Y-10926793D02*
X12538991Y-10964889D01*
X12538991Y-10964889D02*
X12529467Y-10983936D01*
X12529467Y-10983936D02*
X12519944Y-10993460D01*
X12519944Y-10993460D02*
X12500896Y-11002984D01*
X12500896Y-11002984D02*
X12481848Y-11002984D01*
X12481848Y-11002984D02*
X12462801Y-10993460D01*
X12462801Y-10993460D02*
X12453277Y-10983936D01*
X12453277Y-10983936D02*
X12443753Y-10964889D01*
X12443753Y-10964889D02*
X12434229Y-10926793D01*
X12434229Y-10926793D02*
X12434229Y-10879174D01*
X12434229Y-10879174D02*
X12443753Y-10841079D01*
X12443753Y-10841079D02*
X12453277Y-10822031D01*
X12453277Y-10822031D02*
X12462801Y-10812508D01*
X12462801Y-10812508D02*
X12481848Y-10802984D01*
X12615182Y-10802984D02*
X12738991Y-10802984D01*
X12738991Y-10802984D02*
X12672325Y-10879174D01*
X12672325Y-10879174D02*
X12700896Y-10879174D01*
X12700896Y-10879174D02*
X12719944Y-10888698D01*
X12719944Y-10888698D02*
X12729467Y-10898222D01*
X12729467Y-10898222D02*
X12738991Y-10917270D01*
X12738991Y-10917270D02*
X12738991Y-10964889D01*
X12738991Y-10964889D02*
X12729467Y-10983936D01*
X12729467Y-10983936D02*
X12719944Y-10993460D01*
X12719944Y-10993460D02*
X12700896Y-11002984D01*
X12700896Y-11002984D02*
X12643753Y-11002984D01*
X12643753Y-11002984D02*
X12624706Y-10993460D01*
X12624706Y-10993460D02*
X12615182Y-10983936D01*
X12929467Y-11002984D02*
X12815182Y-11002984D01*
X12872325Y-11002984D02*
X12872325Y-10802984D01*
X12872325Y-10802984D02*
X12853277Y-10831555D01*
X12853277Y-10831555D02*
X12834229Y-10850603D01*
X12834229Y-10850603D02*
X12815182Y-10860127D01*
X13110420Y-10802984D02*
X13015182Y-10802984D01*
X13015182Y-10802984D02*
X13005658Y-10898222D01*
X13005658Y-10898222D02*
X13015182Y-10888698D01*
X13015182Y-10888698D02*
X13034229Y-10879174D01*
X13034229Y-10879174D02*
X13081848Y-10879174D01*
X13081848Y-10879174D02*
X13100896Y-10888698D01*
X13100896Y-10888698D02*
X13110420Y-10898222D01*
X13110420Y-10898222D02*
X13119944Y-10917270D01*
X13119944Y-10917270D02*
X13119944Y-10964889D01*
X13119944Y-10964889D02*
X13110420Y-10983936D01*
X13110420Y-10983936D02*
X13100896Y-10993460D01*
X13100896Y-10993460D02*
X13081848Y-11002984D01*
X13081848Y-11002984D02*
X13034229Y-11002984D01*
X13034229Y-11002984D02*
X13015182Y-10993460D01*
X13015182Y-10993460D02*
X13005658Y-10983936D01*
X13196134Y-10802984D02*
X13196134Y-10841079D01*
X13272325Y-10802984D02*
X13272325Y-10841079D01*
X13567563Y-11079174D02*
X13558039Y-11069650D01*
X13558039Y-11069650D02*
X13538991Y-11041079D01*
X13538991Y-11041079D02*
X13529468Y-11022031D01*
X13529468Y-11022031D02*
X13519944Y-10993460D01*
X13519944Y-10993460D02*
X13510420Y-10945841D01*
X13510420Y-10945841D02*
X13510420Y-10907746D01*
X13510420Y-10907746D02*
X13519944Y-10860127D01*
X13519944Y-10860127D02*
X13529468Y-10831555D01*
X13529468Y-10831555D02*
X13538991Y-10812508D01*
X13538991Y-10812508D02*
X13558039Y-10783936D01*
X13558039Y-10783936D02*
X13567563Y-10774412D01*
X13634229Y-10822031D02*
X13643753Y-10812508D01*
X13643753Y-10812508D02*
X13662801Y-10802984D01*
X13662801Y-10802984D02*
X13710420Y-10802984D01*
X13710420Y-10802984D02*
X13729468Y-10812508D01*
X13729468Y-10812508D02*
X13738991Y-10822031D01*
X13738991Y-10822031D02*
X13748515Y-10841079D01*
X13748515Y-10841079D02*
X13748515Y-10860127D01*
X13748515Y-10860127D02*
X13738991Y-10888698D01*
X13738991Y-10888698D02*
X13624706Y-11002984D01*
X13624706Y-11002984D02*
X13748515Y-11002984D01*
X13919944Y-10869650D02*
X13919944Y-11002984D01*
X13872325Y-10793460D02*
X13824706Y-10936317D01*
X13824706Y-10936317D02*
X13948515Y-10936317D01*
X14177087Y-11002984D02*
X14177087Y-10802984D01*
X14262801Y-11002984D02*
X14262801Y-10898222D01*
X14262801Y-10898222D02*
X14253277Y-10879174D01*
X14253277Y-10879174D02*
X14234230Y-10869650D01*
X14234230Y-10869650D02*
X14205658Y-10869650D01*
X14205658Y-10869650D02*
X14186610Y-10879174D01*
X14186610Y-10879174D02*
X14177087Y-10888698D01*
X14386610Y-11002984D02*
X14367563Y-10993460D01*
X14367563Y-10993460D02*
X14358039Y-10983936D01*
X14358039Y-10983936D02*
X14348515Y-10964889D01*
X14348515Y-10964889D02*
X14348515Y-10907746D01*
X14348515Y-10907746D02*
X14358039Y-10888698D01*
X14358039Y-10888698D02*
X14367563Y-10879174D01*
X14367563Y-10879174D02*
X14386610Y-10869650D01*
X14386610Y-10869650D02*
X14415182Y-10869650D01*
X14415182Y-10869650D02*
X14434230Y-10879174D01*
X14434230Y-10879174D02*
X14443753Y-10888698D01*
X14443753Y-10888698D02*
X14453277Y-10907746D01*
X14453277Y-10907746D02*
X14453277Y-10964889D01*
X14453277Y-10964889D02*
X14443753Y-10983936D01*
X14443753Y-10983936D02*
X14434230Y-10993460D01*
X14434230Y-10993460D02*
X14415182Y-11002984D01*
X14415182Y-11002984D02*
X14386610Y-11002984D01*
X14567563Y-11002984D02*
X14548515Y-10993460D01*
X14548515Y-10993460D02*
X14538991Y-10974412D01*
X14538991Y-10974412D02*
X14538991Y-10802984D01*
X14719944Y-10993460D02*
X14700896Y-11002984D01*
X14700896Y-11002984D02*
X14662801Y-11002984D01*
X14662801Y-11002984D02*
X14643753Y-10993460D01*
X14643753Y-10993460D02*
X14634230Y-10974412D01*
X14634230Y-10974412D02*
X14634230Y-10898222D01*
X14634230Y-10898222D02*
X14643753Y-10879174D01*
X14643753Y-10879174D02*
X14662801Y-10869650D01*
X14662801Y-10869650D02*
X14700896Y-10869650D01*
X14700896Y-10869650D02*
X14719944Y-10879174D01*
X14719944Y-10879174D02*
X14729468Y-10898222D01*
X14729468Y-10898222D02*
X14729468Y-10917270D01*
X14729468Y-10917270D02*
X14634230Y-10936317D01*
X14805658Y-10993460D02*
X14824706Y-11002984D01*
X14824706Y-11002984D02*
X14862801Y-11002984D01*
X14862801Y-11002984D02*
X14881849Y-10993460D01*
X14881849Y-10993460D02*
X14891372Y-10974412D01*
X14891372Y-10974412D02*
X14891372Y-10964889D01*
X14891372Y-10964889D02*
X14881849Y-10945841D01*
X14881849Y-10945841D02*
X14862801Y-10936317D01*
X14862801Y-10936317D02*
X14834230Y-10936317D01*
X14834230Y-10936317D02*
X14815182Y-10926793D01*
X14815182Y-10926793D02*
X14805658Y-10907746D01*
X14805658Y-10907746D02*
X14805658Y-10898222D01*
X14805658Y-10898222D02*
X14815182Y-10879174D01*
X14815182Y-10879174D02*
X14834230Y-10869650D01*
X14834230Y-10869650D02*
X14862801Y-10869650D01*
X14862801Y-10869650D02*
X14881849Y-10879174D01*
X14958039Y-11079174D02*
X14967563Y-11069650D01*
X14967563Y-11069650D02*
X14986611Y-11041079D01*
X14986611Y-11041079D02*
X14996134Y-11022031D01*
X14996134Y-11022031D02*
X15005658Y-10993460D01*
X15005658Y-10993460D02*
X15015182Y-10945841D01*
X15015182Y-10945841D02*
X15015182Y-10907746D01*
X15015182Y-10907746D02*
X15005658Y-10860127D01*
X15005658Y-10860127D02*
X14996134Y-10831555D01*
X14996134Y-10831555D02*
X14986611Y-10812508D01*
X14986611Y-10812508D02*
X14967563Y-10783936D01*
X14967563Y-10783936D02*
X14958039Y-10774412D01*
D12*
X9947500Y-11130500D02*
X9947500Y-11220500D01*
X9902500Y-11175500D02*
X9992500Y-11175500D01*
D11*
X10291372Y-11066984D02*
X10310420Y-11066984D01*
X10310420Y-11066984D02*
X10329467Y-11076508D01*
X10329467Y-11076508D02*
X10338991Y-11086031D01*
X10338991Y-11086031D02*
X10348515Y-11105079D01*
X10348515Y-11105079D02*
X10358039Y-11143174D01*
X10358039Y-11143174D02*
X10358039Y-11190793D01*
X10358039Y-11190793D02*
X10348515Y-11228888D01*
X10348515Y-11228888D02*
X10338991Y-11247936D01*
X10338991Y-11247936D02*
X10329467Y-11257460D01*
X10329467Y-11257460D02*
X10310420Y-11266984D01*
X10310420Y-11266984D02*
X10291372Y-11266984D01*
X10291372Y-11266984D02*
X10272324Y-11257460D01*
X10272324Y-11257460D02*
X10262801Y-11247936D01*
X10262801Y-11247936D02*
X10253277Y-11228888D01*
X10253277Y-11228888D02*
X10243753Y-11190793D01*
X10243753Y-11190793D02*
X10243753Y-11143174D01*
X10243753Y-11143174D02*
X10253277Y-11105079D01*
X10253277Y-11105079D02*
X10262801Y-11086031D01*
X10262801Y-11086031D02*
X10272324Y-11076508D01*
X10272324Y-11076508D02*
X10291372Y-11066984D01*
X10443753Y-11247936D02*
X10453277Y-11257460D01*
X10453277Y-11257460D02*
X10443753Y-11266984D01*
X10443753Y-11266984D02*
X10434229Y-11257460D01*
X10434229Y-11257460D02*
X10443753Y-11247936D01*
X10443753Y-11247936D02*
X10443753Y-11266984D01*
X10548515Y-11266984D02*
X10586610Y-11266984D01*
X10586610Y-11266984D02*
X10605658Y-11257460D01*
X10605658Y-11257460D02*
X10615182Y-11247936D01*
X10615182Y-11247936D02*
X10634229Y-11219365D01*
X10634229Y-11219365D02*
X10643753Y-11181270D01*
X10643753Y-11181270D02*
X10643753Y-11105079D01*
X10643753Y-11105079D02*
X10634229Y-11086031D01*
X10634229Y-11086031D02*
X10624705Y-11076508D01*
X10624705Y-11076508D02*
X10605658Y-11066984D01*
X10605658Y-11066984D02*
X10567563Y-11066984D01*
X10567563Y-11066984D02*
X10548515Y-11076508D01*
X10548515Y-11076508D02*
X10538991Y-11086031D01*
X10538991Y-11086031D02*
X10529467Y-11105079D01*
X10529467Y-11105079D02*
X10529467Y-11152698D01*
X10529467Y-11152698D02*
X10538991Y-11171746D01*
X10538991Y-11171746D02*
X10548515Y-11181270D01*
X10548515Y-11181270D02*
X10567563Y-11190793D01*
X10567563Y-11190793D02*
X10605658Y-11190793D01*
X10605658Y-11190793D02*
X10624705Y-11181270D01*
X10624705Y-11181270D02*
X10634229Y-11171746D01*
X10634229Y-11171746D02*
X10643753Y-11152698D01*
X10767563Y-11066984D02*
X10786610Y-11066984D01*
X10786610Y-11066984D02*
X10805658Y-11076508D01*
X10805658Y-11076508D02*
X10815182Y-11086031D01*
X10815182Y-11086031D02*
X10824705Y-11105079D01*
X10824705Y-11105079D02*
X10834229Y-11143174D01*
X10834229Y-11143174D02*
X10834229Y-11190793D01*
X10834229Y-11190793D02*
X10824705Y-11228888D01*
X10824705Y-11228888D02*
X10815182Y-11247936D01*
X10815182Y-11247936D02*
X10805658Y-11257460D01*
X10805658Y-11257460D02*
X10786610Y-11266984D01*
X10786610Y-11266984D02*
X10767563Y-11266984D01*
X10767563Y-11266984D02*
X10748515Y-11257460D01*
X10748515Y-11257460D02*
X10738991Y-11247936D01*
X10738991Y-11247936D02*
X10729467Y-11228888D01*
X10729467Y-11228888D02*
X10719944Y-11190793D01*
X10719944Y-11190793D02*
X10719944Y-11143174D01*
X10719944Y-11143174D02*
X10729467Y-11105079D01*
X10729467Y-11105079D02*
X10738991Y-11086031D01*
X10738991Y-11086031D02*
X10748515Y-11076508D01*
X10748515Y-11076508D02*
X10767563Y-11066984D01*
X10958039Y-11066984D02*
X10977086Y-11066984D01*
X10977086Y-11066984D02*
X10996134Y-11076508D01*
X10996134Y-11076508D02*
X11005658Y-11086031D01*
X11005658Y-11086031D02*
X11015182Y-11105079D01*
X11015182Y-11105079D02*
X11024705Y-11143174D01*
X11024705Y-11143174D02*
X11024705Y-11190793D01*
X11024705Y-11190793D02*
X11015182Y-11228888D01*
X11015182Y-11228888D02*
X11005658Y-11247936D01*
X11005658Y-11247936D02*
X10996134Y-11257460D01*
X10996134Y-11257460D02*
X10977086Y-11266984D01*
X10977086Y-11266984D02*
X10958039Y-11266984D01*
X10958039Y-11266984D02*
X10938991Y-11257460D01*
X10938991Y-11257460D02*
X10929467Y-11247936D01*
X10929467Y-11247936D02*
X10919944Y-11228888D01*
X10919944Y-11228888D02*
X10910420Y-11190793D01*
X10910420Y-11190793D02*
X10910420Y-11143174D01*
X10910420Y-11143174D02*
X10919944Y-11105079D01*
X10919944Y-11105079D02*
X10929467Y-11086031D01*
X10929467Y-11086031D02*
X10938991Y-11076508D01*
X10938991Y-11076508D02*
X10958039Y-11066984D01*
X11110420Y-11266984D02*
X11110420Y-11133650D01*
X11110420Y-11152698D02*
X11119944Y-11143174D01*
X11119944Y-11143174D02*
X11138991Y-11133650D01*
X11138991Y-11133650D02*
X11167563Y-11133650D01*
X11167563Y-11133650D02*
X11186610Y-11143174D01*
X11186610Y-11143174D02*
X11196134Y-11162222D01*
X11196134Y-11162222D02*
X11196134Y-11266984D01*
X11196134Y-11162222D02*
X11205658Y-11143174D01*
X11205658Y-11143174D02*
X11224705Y-11133650D01*
X11224705Y-11133650D02*
X11253277Y-11133650D01*
X11253277Y-11133650D02*
X11272324Y-11143174D01*
X11272324Y-11143174D02*
X11281848Y-11162222D01*
X11281848Y-11162222D02*
X11281848Y-11266984D01*
X11377086Y-11266984D02*
X11377086Y-11133650D01*
X11377086Y-11152698D02*
X11386610Y-11143174D01*
X11386610Y-11143174D02*
X11405658Y-11133650D01*
X11405658Y-11133650D02*
X11434229Y-11133650D01*
X11434229Y-11133650D02*
X11453277Y-11143174D01*
X11453277Y-11143174D02*
X11462801Y-11162222D01*
X11462801Y-11162222D02*
X11462801Y-11266984D01*
X11462801Y-11162222D02*
X11472324Y-11143174D01*
X11472324Y-11143174D02*
X11491372Y-11133650D01*
X11491372Y-11133650D02*
X11519943Y-11133650D01*
X11519943Y-11133650D02*
X11538991Y-11143174D01*
X11538991Y-11143174D02*
X11548515Y-11162222D01*
X11548515Y-11162222D02*
X11548515Y-11266984D01*
X11938991Y-11057460D02*
X11767563Y-11314603D01*
X12196134Y-11066984D02*
X12215182Y-11066984D01*
X12215182Y-11066984D02*
X12234229Y-11076508D01*
X12234229Y-11076508D02*
X12243753Y-11086031D01*
X12243753Y-11086031D02*
X12253277Y-11105079D01*
X12253277Y-11105079D02*
X12262801Y-11143174D01*
X12262801Y-11143174D02*
X12262801Y-11190793D01*
X12262801Y-11190793D02*
X12253277Y-11228888D01*
X12253277Y-11228888D02*
X12243753Y-11247936D01*
X12243753Y-11247936D02*
X12234229Y-11257460D01*
X12234229Y-11257460D02*
X12215182Y-11266984D01*
X12215182Y-11266984D02*
X12196134Y-11266984D01*
X12196134Y-11266984D02*
X12177086Y-11257460D01*
X12177086Y-11257460D02*
X12167563Y-11247936D01*
X12167563Y-11247936D02*
X12158039Y-11228888D01*
X12158039Y-11228888D02*
X12148515Y-11190793D01*
X12148515Y-11190793D02*
X12148515Y-11143174D01*
X12148515Y-11143174D02*
X12158039Y-11105079D01*
X12158039Y-11105079D02*
X12167563Y-11086031D01*
X12167563Y-11086031D02*
X12177086Y-11076508D01*
X12177086Y-11076508D02*
X12196134Y-11066984D01*
X12348515Y-11247936D02*
X12358039Y-11257460D01*
X12358039Y-11257460D02*
X12348515Y-11266984D01*
X12348515Y-11266984D02*
X12338991Y-11257460D01*
X12338991Y-11257460D02*
X12348515Y-11247936D01*
X12348515Y-11247936D02*
X12348515Y-11266984D01*
X12481848Y-11066984D02*
X12500896Y-11066984D01*
X12500896Y-11066984D02*
X12519944Y-11076508D01*
X12519944Y-11076508D02*
X12529467Y-11086031D01*
X12529467Y-11086031D02*
X12538991Y-11105079D01*
X12538991Y-11105079D02*
X12548515Y-11143174D01*
X12548515Y-11143174D02*
X12548515Y-11190793D01*
X12548515Y-11190793D02*
X12538991Y-11228888D01*
X12538991Y-11228888D02*
X12529467Y-11247936D01*
X12529467Y-11247936D02*
X12519944Y-11257460D01*
X12519944Y-11257460D02*
X12500896Y-11266984D01*
X12500896Y-11266984D02*
X12481848Y-11266984D01*
X12481848Y-11266984D02*
X12462801Y-11257460D01*
X12462801Y-11257460D02*
X12453277Y-11247936D01*
X12453277Y-11247936D02*
X12443753Y-11228888D01*
X12443753Y-11228888D02*
X12434229Y-11190793D01*
X12434229Y-11190793D02*
X12434229Y-11143174D01*
X12434229Y-11143174D02*
X12443753Y-11105079D01*
X12443753Y-11105079D02*
X12453277Y-11086031D01*
X12453277Y-11086031D02*
X12462801Y-11076508D01*
X12462801Y-11076508D02*
X12481848Y-11066984D01*
X12615182Y-11066984D02*
X12738991Y-11066984D01*
X12738991Y-11066984D02*
X12672325Y-11143174D01*
X12672325Y-11143174D02*
X12700896Y-11143174D01*
X12700896Y-11143174D02*
X12719944Y-11152698D01*
X12719944Y-11152698D02*
X12729467Y-11162222D01*
X12729467Y-11162222D02*
X12738991Y-11181270D01*
X12738991Y-11181270D02*
X12738991Y-11228888D01*
X12738991Y-11228888D02*
X12729467Y-11247936D01*
X12729467Y-11247936D02*
X12719944Y-11257460D01*
X12719944Y-11257460D02*
X12700896Y-11266984D01*
X12700896Y-11266984D02*
X12643753Y-11266984D01*
X12643753Y-11266984D02*
X12624706Y-11257460D01*
X12624706Y-11257460D02*
X12615182Y-11247936D01*
X12919944Y-11066984D02*
X12824706Y-11066984D01*
X12824706Y-11066984D02*
X12815182Y-11162222D01*
X12815182Y-11162222D02*
X12824706Y-11152698D01*
X12824706Y-11152698D02*
X12843753Y-11143174D01*
X12843753Y-11143174D02*
X12891372Y-11143174D01*
X12891372Y-11143174D02*
X12910420Y-11152698D01*
X12910420Y-11152698D02*
X12919944Y-11162222D01*
X12919944Y-11162222D02*
X12929467Y-11181270D01*
X12929467Y-11181270D02*
X12929467Y-11228888D01*
X12929467Y-11228888D02*
X12919944Y-11247936D01*
X12919944Y-11247936D02*
X12910420Y-11257460D01*
X12910420Y-11257460D02*
X12891372Y-11266984D01*
X12891372Y-11266984D02*
X12843753Y-11266984D01*
X12843753Y-11266984D02*
X12824706Y-11257460D01*
X12824706Y-11257460D02*
X12815182Y-11247936D01*
X13100896Y-11133650D02*
X13100896Y-11266984D01*
X13053277Y-11057460D02*
X13005658Y-11200317D01*
X13005658Y-11200317D02*
X13129467Y-11200317D01*
X13196134Y-11066984D02*
X13196134Y-11105079D01*
X13272325Y-11066984D02*
X13272325Y-11105079D01*
X13567563Y-11343174D02*
X13558039Y-11333650D01*
X13558039Y-11333650D02*
X13538991Y-11305079D01*
X13538991Y-11305079D02*
X13529468Y-11286031D01*
X13529468Y-11286031D02*
X13519944Y-11257460D01*
X13519944Y-11257460D02*
X13510420Y-11209841D01*
X13510420Y-11209841D02*
X13510420Y-11171746D01*
X13510420Y-11171746D02*
X13519944Y-11124127D01*
X13519944Y-11124127D02*
X13529468Y-11095555D01*
X13529468Y-11095555D02*
X13538991Y-11076508D01*
X13538991Y-11076508D02*
X13558039Y-11047936D01*
X13558039Y-11047936D02*
X13567563Y-11038412D01*
X13729468Y-11133650D02*
X13729468Y-11266984D01*
X13681848Y-11057460D02*
X13634229Y-11200317D01*
X13634229Y-11200317D02*
X13758039Y-11200317D01*
X13986610Y-11266984D02*
X13986610Y-11066984D01*
X14072325Y-11266984D02*
X14072325Y-11162222D01*
X14072325Y-11162222D02*
X14062801Y-11143174D01*
X14062801Y-11143174D02*
X14043753Y-11133650D01*
X14043753Y-11133650D02*
X14015182Y-11133650D01*
X14015182Y-11133650D02*
X13996134Y-11143174D01*
X13996134Y-11143174D02*
X13986610Y-11152698D01*
X14196134Y-11266984D02*
X14177087Y-11257460D01*
X14177087Y-11257460D02*
X14167563Y-11247936D01*
X14167563Y-11247936D02*
X14158039Y-11228888D01*
X14158039Y-11228888D02*
X14158039Y-11171746D01*
X14158039Y-11171746D02*
X14167563Y-11152698D01*
X14167563Y-11152698D02*
X14177087Y-11143174D01*
X14177087Y-11143174D02*
X14196134Y-11133650D01*
X14196134Y-11133650D02*
X14224706Y-11133650D01*
X14224706Y-11133650D02*
X14243753Y-11143174D01*
X14243753Y-11143174D02*
X14253277Y-11152698D01*
X14253277Y-11152698D02*
X14262801Y-11171746D01*
X14262801Y-11171746D02*
X14262801Y-11228888D01*
X14262801Y-11228888D02*
X14253277Y-11247936D01*
X14253277Y-11247936D02*
X14243753Y-11257460D01*
X14243753Y-11257460D02*
X14224706Y-11266984D01*
X14224706Y-11266984D02*
X14196134Y-11266984D01*
X14377087Y-11266984D02*
X14358039Y-11257460D01*
X14358039Y-11257460D02*
X14348515Y-11238412D01*
X14348515Y-11238412D02*
X14348515Y-11066984D01*
X14529468Y-11257460D02*
X14510420Y-11266984D01*
X14510420Y-11266984D02*
X14472325Y-11266984D01*
X14472325Y-11266984D02*
X14453277Y-11257460D01*
X14453277Y-11257460D02*
X14443753Y-11238412D01*
X14443753Y-11238412D02*
X14443753Y-11162222D01*
X14443753Y-11162222D02*
X14453277Y-11143174D01*
X14453277Y-11143174D02*
X14472325Y-11133650D01*
X14472325Y-11133650D02*
X14510420Y-11133650D01*
X14510420Y-11133650D02*
X14529468Y-11143174D01*
X14529468Y-11143174D02*
X14538991Y-11162222D01*
X14538991Y-11162222D02*
X14538991Y-11181270D01*
X14538991Y-11181270D02*
X14443753Y-11200317D01*
X14615182Y-11257460D02*
X14634230Y-11266984D01*
X14634230Y-11266984D02*
X14672325Y-11266984D01*
X14672325Y-11266984D02*
X14691372Y-11257460D01*
X14691372Y-11257460D02*
X14700896Y-11238412D01*
X14700896Y-11238412D02*
X14700896Y-11228888D01*
X14700896Y-11228888D02*
X14691372Y-11209841D01*
X14691372Y-11209841D02*
X14672325Y-11200317D01*
X14672325Y-11200317D02*
X14643753Y-11200317D01*
X14643753Y-11200317D02*
X14624706Y-11190793D01*
X14624706Y-11190793D02*
X14615182Y-11171746D01*
X14615182Y-11171746D02*
X14615182Y-11162222D01*
X14615182Y-11162222D02*
X14624706Y-11143174D01*
X14624706Y-11143174D02*
X14643753Y-11133650D01*
X14643753Y-11133650D02*
X14672325Y-11133650D01*
X14672325Y-11133650D02*
X14691372Y-11143174D01*
X14767563Y-11343174D02*
X14777087Y-11333650D01*
X14777087Y-11333650D02*
X14796134Y-11305079D01*
X14796134Y-11305079D02*
X14805658Y-11286031D01*
X14805658Y-11286031D02*
X14815182Y-11257460D01*
X14815182Y-11257460D02*
X14824706Y-11209841D01*
X14824706Y-11209841D02*
X14824706Y-11171746D01*
X14824706Y-11171746D02*
X14815182Y-11124127D01*
X14815182Y-11124127D02*
X14805658Y-11095555D01*
X14805658Y-11095555D02*
X14796134Y-11076508D01*
X14796134Y-11076508D02*
X14777087Y-11047936D01*
X14777087Y-11047936D02*
X14767563Y-11038412D01*
D12*
X9977856Y-11474856D02*
X9977856Y-11404144D01*
X9907144Y-11404144D01*
X9907144Y-11474856D01*
X9977856Y-11474856D01*
D11*
X10358039Y-11530984D02*
X10243753Y-11530984D01*
X10300896Y-11530984D02*
X10300896Y-11330984D01*
X10300896Y-11330984D02*
X10281848Y-11359555D01*
X10281848Y-11359555D02*
X10262801Y-11378603D01*
X10262801Y-11378603D02*
X10243753Y-11388127D01*
X10443753Y-11511936D02*
X10453277Y-11521460D01*
X10453277Y-11521460D02*
X10443753Y-11530984D01*
X10443753Y-11530984D02*
X10434229Y-11521460D01*
X10434229Y-11521460D02*
X10443753Y-11511936D01*
X10443753Y-11511936D02*
X10443753Y-11530984D01*
X10577086Y-11330984D02*
X10596134Y-11330984D01*
X10596134Y-11330984D02*
X10615182Y-11340508D01*
X10615182Y-11340508D02*
X10624705Y-11350031D01*
X10624705Y-11350031D02*
X10634229Y-11369079D01*
X10634229Y-11369079D02*
X10643753Y-11407174D01*
X10643753Y-11407174D02*
X10643753Y-11454793D01*
X10643753Y-11454793D02*
X10634229Y-11492888D01*
X10634229Y-11492888D02*
X10624705Y-11511936D01*
X10624705Y-11511936D02*
X10615182Y-11521460D01*
X10615182Y-11521460D02*
X10596134Y-11530984D01*
X10596134Y-11530984D02*
X10577086Y-11530984D01*
X10577086Y-11530984D02*
X10558039Y-11521460D01*
X10558039Y-11521460D02*
X10548515Y-11511936D01*
X10548515Y-11511936D02*
X10538991Y-11492888D01*
X10538991Y-11492888D02*
X10529467Y-11454793D01*
X10529467Y-11454793D02*
X10529467Y-11407174D01*
X10529467Y-11407174D02*
X10538991Y-11369079D01*
X10538991Y-11369079D02*
X10548515Y-11350031D01*
X10548515Y-11350031D02*
X10558039Y-11340508D01*
X10558039Y-11340508D02*
X10577086Y-11330984D01*
X10767563Y-11330984D02*
X10786610Y-11330984D01*
X10786610Y-11330984D02*
X10805658Y-11340508D01*
X10805658Y-11340508D02*
X10815182Y-11350031D01*
X10815182Y-11350031D02*
X10824705Y-11369079D01*
X10824705Y-11369079D02*
X10834229Y-11407174D01*
X10834229Y-11407174D02*
X10834229Y-11454793D01*
X10834229Y-11454793D02*
X10824705Y-11492888D01*
X10824705Y-11492888D02*
X10815182Y-11511936D01*
X10815182Y-11511936D02*
X10805658Y-11521460D01*
X10805658Y-11521460D02*
X10786610Y-11530984D01*
X10786610Y-11530984D02*
X10767563Y-11530984D01*
X10767563Y-11530984D02*
X10748515Y-11521460D01*
X10748515Y-11521460D02*
X10738991Y-11511936D01*
X10738991Y-11511936D02*
X10729467Y-11492888D01*
X10729467Y-11492888D02*
X10719944Y-11454793D01*
X10719944Y-11454793D02*
X10719944Y-11407174D01*
X10719944Y-11407174D02*
X10729467Y-11369079D01*
X10729467Y-11369079D02*
X10738991Y-11350031D01*
X10738991Y-11350031D02*
X10748515Y-11340508D01*
X10748515Y-11340508D02*
X10767563Y-11330984D01*
X10958039Y-11330984D02*
X10977086Y-11330984D01*
X10977086Y-11330984D02*
X10996134Y-11340508D01*
X10996134Y-11340508D02*
X11005658Y-11350031D01*
X11005658Y-11350031D02*
X11015182Y-11369079D01*
X11015182Y-11369079D02*
X11024705Y-11407174D01*
X11024705Y-11407174D02*
X11024705Y-11454793D01*
X11024705Y-11454793D02*
X11015182Y-11492888D01*
X11015182Y-11492888D02*
X11005658Y-11511936D01*
X11005658Y-11511936D02*
X10996134Y-11521460D01*
X10996134Y-11521460D02*
X10977086Y-11530984D01*
X10977086Y-11530984D02*
X10958039Y-11530984D01*
X10958039Y-11530984D02*
X10938991Y-11521460D01*
X10938991Y-11521460D02*
X10929467Y-11511936D01*
X10929467Y-11511936D02*
X10919944Y-11492888D01*
X10919944Y-11492888D02*
X10910420Y-11454793D01*
X10910420Y-11454793D02*
X10910420Y-11407174D01*
X10910420Y-11407174D02*
X10919944Y-11369079D01*
X10919944Y-11369079D02*
X10929467Y-11350031D01*
X10929467Y-11350031D02*
X10938991Y-11340508D01*
X10938991Y-11340508D02*
X10958039Y-11330984D01*
X11110420Y-11530984D02*
X11110420Y-11397650D01*
X11110420Y-11416698D02*
X11119944Y-11407174D01*
X11119944Y-11407174D02*
X11138991Y-11397650D01*
X11138991Y-11397650D02*
X11167563Y-11397650D01*
X11167563Y-11397650D02*
X11186610Y-11407174D01*
X11186610Y-11407174D02*
X11196134Y-11426222D01*
X11196134Y-11426222D02*
X11196134Y-11530984D01*
X11196134Y-11426222D02*
X11205658Y-11407174D01*
X11205658Y-11407174D02*
X11224705Y-11397650D01*
X11224705Y-11397650D02*
X11253277Y-11397650D01*
X11253277Y-11397650D02*
X11272324Y-11407174D01*
X11272324Y-11407174D02*
X11281848Y-11426222D01*
X11281848Y-11426222D02*
X11281848Y-11530984D01*
X11377086Y-11530984D02*
X11377086Y-11397650D01*
X11377086Y-11416698D02*
X11386610Y-11407174D01*
X11386610Y-11407174D02*
X11405658Y-11397650D01*
X11405658Y-11397650D02*
X11434229Y-11397650D01*
X11434229Y-11397650D02*
X11453277Y-11407174D01*
X11453277Y-11407174D02*
X11462801Y-11426222D01*
X11462801Y-11426222D02*
X11462801Y-11530984D01*
X11462801Y-11426222D02*
X11472324Y-11407174D01*
X11472324Y-11407174D02*
X11491372Y-11397650D01*
X11491372Y-11397650D02*
X11519943Y-11397650D01*
X11519943Y-11397650D02*
X11538991Y-11407174D01*
X11538991Y-11407174D02*
X11548515Y-11426222D01*
X11548515Y-11426222D02*
X11548515Y-11530984D01*
X11938991Y-11321460D02*
X11767563Y-11578603D01*
X12196134Y-11330984D02*
X12215182Y-11330984D01*
X12215182Y-11330984D02*
X12234229Y-11340508D01*
X12234229Y-11340508D02*
X12243753Y-11350031D01*
X12243753Y-11350031D02*
X12253277Y-11369079D01*
X12253277Y-11369079D02*
X12262801Y-11407174D01*
X12262801Y-11407174D02*
X12262801Y-11454793D01*
X12262801Y-11454793D02*
X12253277Y-11492888D01*
X12253277Y-11492888D02*
X12243753Y-11511936D01*
X12243753Y-11511936D02*
X12234229Y-11521460D01*
X12234229Y-11521460D02*
X12215182Y-11530984D01*
X12215182Y-11530984D02*
X12196134Y-11530984D01*
X12196134Y-11530984D02*
X12177086Y-11521460D01*
X12177086Y-11521460D02*
X12167563Y-11511936D01*
X12167563Y-11511936D02*
X12158039Y-11492888D01*
X12158039Y-11492888D02*
X12148515Y-11454793D01*
X12148515Y-11454793D02*
X12148515Y-11407174D01*
X12148515Y-11407174D02*
X12158039Y-11369079D01*
X12158039Y-11369079D02*
X12167563Y-11350031D01*
X12167563Y-11350031D02*
X12177086Y-11340508D01*
X12177086Y-11340508D02*
X12196134Y-11330984D01*
X12348515Y-11511936D02*
X12358039Y-11521460D01*
X12358039Y-11521460D02*
X12348515Y-11530984D01*
X12348515Y-11530984D02*
X12338991Y-11521460D01*
X12338991Y-11521460D02*
X12348515Y-11511936D01*
X12348515Y-11511936D02*
X12348515Y-11530984D01*
X12481848Y-11330984D02*
X12500896Y-11330984D01*
X12500896Y-11330984D02*
X12519944Y-11340508D01*
X12519944Y-11340508D02*
X12529467Y-11350031D01*
X12529467Y-11350031D02*
X12538991Y-11369079D01*
X12538991Y-11369079D02*
X12548515Y-11407174D01*
X12548515Y-11407174D02*
X12548515Y-11454793D01*
X12548515Y-11454793D02*
X12538991Y-11492888D01*
X12538991Y-11492888D02*
X12529467Y-11511936D01*
X12529467Y-11511936D02*
X12519944Y-11521460D01*
X12519944Y-11521460D02*
X12500896Y-11530984D01*
X12500896Y-11530984D02*
X12481848Y-11530984D01*
X12481848Y-11530984D02*
X12462801Y-11521460D01*
X12462801Y-11521460D02*
X12453277Y-11511936D01*
X12453277Y-11511936D02*
X12443753Y-11492888D01*
X12443753Y-11492888D02*
X12434229Y-11454793D01*
X12434229Y-11454793D02*
X12434229Y-11407174D01*
X12434229Y-11407174D02*
X12443753Y-11369079D01*
X12443753Y-11369079D02*
X12453277Y-11350031D01*
X12453277Y-11350031D02*
X12462801Y-11340508D01*
X12462801Y-11340508D02*
X12481848Y-11330984D01*
X12615182Y-11330984D02*
X12738991Y-11330984D01*
X12738991Y-11330984D02*
X12672325Y-11407174D01*
X12672325Y-11407174D02*
X12700896Y-11407174D01*
X12700896Y-11407174D02*
X12719944Y-11416698D01*
X12719944Y-11416698D02*
X12729467Y-11426222D01*
X12729467Y-11426222D02*
X12738991Y-11445269D01*
X12738991Y-11445269D02*
X12738991Y-11492888D01*
X12738991Y-11492888D02*
X12729467Y-11511936D01*
X12729467Y-11511936D02*
X12719944Y-11521460D01*
X12719944Y-11521460D02*
X12700896Y-11530984D01*
X12700896Y-11530984D02*
X12643753Y-11530984D01*
X12643753Y-11530984D02*
X12624706Y-11521460D01*
X12624706Y-11521460D02*
X12615182Y-11511936D01*
X12834229Y-11530984D02*
X12872325Y-11530984D01*
X12872325Y-11530984D02*
X12891372Y-11521460D01*
X12891372Y-11521460D02*
X12900896Y-11511936D01*
X12900896Y-11511936D02*
X12919944Y-11483365D01*
X12919944Y-11483365D02*
X12929467Y-11445269D01*
X12929467Y-11445269D02*
X12929467Y-11369079D01*
X12929467Y-11369079D02*
X12919944Y-11350031D01*
X12919944Y-11350031D02*
X12910420Y-11340508D01*
X12910420Y-11340508D02*
X12891372Y-11330984D01*
X12891372Y-11330984D02*
X12853277Y-11330984D01*
X12853277Y-11330984D02*
X12834229Y-11340508D01*
X12834229Y-11340508D02*
X12824706Y-11350031D01*
X12824706Y-11350031D02*
X12815182Y-11369079D01*
X12815182Y-11369079D02*
X12815182Y-11416698D01*
X12815182Y-11416698D02*
X12824706Y-11435746D01*
X12824706Y-11435746D02*
X12834229Y-11445269D01*
X12834229Y-11445269D02*
X12853277Y-11454793D01*
X12853277Y-11454793D02*
X12891372Y-11454793D01*
X12891372Y-11454793D02*
X12910420Y-11445269D01*
X12910420Y-11445269D02*
X12919944Y-11435746D01*
X12919944Y-11435746D02*
X12929467Y-11416698D01*
X13100896Y-11397650D02*
X13100896Y-11530984D01*
X13053277Y-11321460D02*
X13005658Y-11464317D01*
X13005658Y-11464317D02*
X13129467Y-11464317D01*
X13196134Y-11330984D02*
X13196134Y-11369079D01*
X13272325Y-11330984D02*
X13272325Y-11369079D01*
X13567563Y-11607174D02*
X13558039Y-11597650D01*
X13558039Y-11597650D02*
X13538991Y-11569079D01*
X13538991Y-11569079D02*
X13529468Y-11550031D01*
X13529468Y-11550031D02*
X13519944Y-11521460D01*
X13519944Y-11521460D02*
X13510420Y-11473841D01*
X13510420Y-11473841D02*
X13510420Y-11435746D01*
X13510420Y-11435746D02*
X13519944Y-11388127D01*
X13519944Y-11388127D02*
X13529468Y-11359555D01*
X13529468Y-11359555D02*
X13538991Y-11340508D01*
X13538991Y-11340508D02*
X13558039Y-11311936D01*
X13558039Y-11311936D02*
X13567563Y-11302412D01*
X13624706Y-11330984D02*
X13748515Y-11330984D01*
X13748515Y-11330984D02*
X13681848Y-11407174D01*
X13681848Y-11407174D02*
X13710420Y-11407174D01*
X13710420Y-11407174D02*
X13729468Y-11416698D01*
X13729468Y-11416698D02*
X13738991Y-11426222D01*
X13738991Y-11426222D02*
X13748515Y-11445269D01*
X13748515Y-11445269D02*
X13748515Y-11492888D01*
X13748515Y-11492888D02*
X13738991Y-11511936D01*
X13738991Y-11511936D02*
X13729468Y-11521460D01*
X13729468Y-11521460D02*
X13710420Y-11530984D01*
X13710420Y-11530984D02*
X13653277Y-11530984D01*
X13653277Y-11530984D02*
X13634229Y-11521460D01*
X13634229Y-11521460D02*
X13624706Y-11511936D01*
X13862801Y-11416698D02*
X13843753Y-11407174D01*
X13843753Y-11407174D02*
X13834229Y-11397650D01*
X13834229Y-11397650D02*
X13824706Y-11378603D01*
X13824706Y-11378603D02*
X13824706Y-11369079D01*
X13824706Y-11369079D02*
X13834229Y-11350031D01*
X13834229Y-11350031D02*
X13843753Y-11340508D01*
X13843753Y-11340508D02*
X13862801Y-11330984D01*
X13862801Y-11330984D02*
X13900896Y-11330984D01*
X13900896Y-11330984D02*
X13919944Y-11340508D01*
X13919944Y-11340508D02*
X13929468Y-11350031D01*
X13929468Y-11350031D02*
X13938991Y-11369079D01*
X13938991Y-11369079D02*
X13938991Y-11378603D01*
X13938991Y-11378603D02*
X13929468Y-11397650D01*
X13929468Y-11397650D02*
X13919944Y-11407174D01*
X13919944Y-11407174D02*
X13900896Y-11416698D01*
X13900896Y-11416698D02*
X13862801Y-11416698D01*
X13862801Y-11416698D02*
X13843753Y-11426222D01*
X13843753Y-11426222D02*
X13834229Y-11435746D01*
X13834229Y-11435746D02*
X13824706Y-11454793D01*
X13824706Y-11454793D02*
X13824706Y-11492888D01*
X13824706Y-11492888D02*
X13834229Y-11511936D01*
X13834229Y-11511936D02*
X13843753Y-11521460D01*
X13843753Y-11521460D02*
X13862801Y-11530984D01*
X13862801Y-11530984D02*
X13900896Y-11530984D01*
X13900896Y-11530984D02*
X13919944Y-11521460D01*
X13919944Y-11521460D02*
X13929468Y-11511936D01*
X13929468Y-11511936D02*
X13938991Y-11492888D01*
X13938991Y-11492888D02*
X13938991Y-11454793D01*
X13938991Y-11454793D02*
X13929468Y-11435746D01*
X13929468Y-11435746D02*
X13919944Y-11426222D01*
X13919944Y-11426222D02*
X13900896Y-11416698D01*
X14177087Y-11530984D02*
X14177087Y-11330984D01*
X14262801Y-11530984D02*
X14262801Y-11426222D01*
X14262801Y-11426222D02*
X14253277Y-11407174D01*
X14253277Y-11407174D02*
X14234230Y-11397650D01*
X14234230Y-11397650D02*
X14205658Y-11397650D01*
X14205658Y-11397650D02*
X14186610Y-11407174D01*
X14186610Y-11407174D02*
X14177087Y-11416698D01*
X14386610Y-11530984D02*
X14367563Y-11521460D01*
X14367563Y-11521460D02*
X14358039Y-11511936D01*
X14358039Y-11511936D02*
X14348515Y-11492888D01*
X14348515Y-11492888D02*
X14348515Y-11435746D01*
X14348515Y-11435746D02*
X14358039Y-11416698D01*
X14358039Y-11416698D02*
X14367563Y-11407174D01*
X14367563Y-11407174D02*
X14386610Y-11397650D01*
X14386610Y-11397650D02*
X14415182Y-11397650D01*
X14415182Y-11397650D02*
X14434230Y-11407174D01*
X14434230Y-11407174D02*
X14443753Y-11416698D01*
X14443753Y-11416698D02*
X14453277Y-11435746D01*
X14453277Y-11435746D02*
X14453277Y-11492888D01*
X14453277Y-11492888D02*
X14443753Y-11511936D01*
X14443753Y-11511936D02*
X14434230Y-11521460D01*
X14434230Y-11521460D02*
X14415182Y-11530984D01*
X14415182Y-11530984D02*
X14386610Y-11530984D01*
X14567563Y-11530984D02*
X14548515Y-11521460D01*
X14548515Y-11521460D02*
X14538991Y-11502412D01*
X14538991Y-11502412D02*
X14538991Y-11330984D01*
X14719944Y-11521460D02*
X14700896Y-11530984D01*
X14700896Y-11530984D02*
X14662801Y-11530984D01*
X14662801Y-11530984D02*
X14643753Y-11521460D01*
X14643753Y-11521460D02*
X14634230Y-11502412D01*
X14634230Y-11502412D02*
X14634230Y-11426222D01*
X14634230Y-11426222D02*
X14643753Y-11407174D01*
X14643753Y-11407174D02*
X14662801Y-11397650D01*
X14662801Y-11397650D02*
X14700896Y-11397650D01*
X14700896Y-11397650D02*
X14719944Y-11407174D01*
X14719944Y-11407174D02*
X14729468Y-11426222D01*
X14729468Y-11426222D02*
X14729468Y-11445269D01*
X14729468Y-11445269D02*
X14634230Y-11464317D01*
X14805658Y-11521460D02*
X14824706Y-11530984D01*
X14824706Y-11530984D02*
X14862801Y-11530984D01*
X14862801Y-11530984D02*
X14881849Y-11521460D01*
X14881849Y-11521460D02*
X14891372Y-11502412D01*
X14891372Y-11502412D02*
X14891372Y-11492888D01*
X14891372Y-11492888D02*
X14881849Y-11473841D01*
X14881849Y-11473841D02*
X14862801Y-11464317D01*
X14862801Y-11464317D02*
X14834230Y-11464317D01*
X14834230Y-11464317D02*
X14815182Y-11454793D01*
X14815182Y-11454793D02*
X14805658Y-11435746D01*
X14805658Y-11435746D02*
X14805658Y-11426222D01*
X14805658Y-11426222D02*
X14815182Y-11407174D01*
X14815182Y-11407174D02*
X14834230Y-11397650D01*
X14834230Y-11397650D02*
X14862801Y-11397650D01*
X14862801Y-11397650D02*
X14881849Y-11407174D01*
X14958039Y-11607174D02*
X14967563Y-11597650D01*
X14967563Y-11597650D02*
X14986611Y-11569079D01*
X14986611Y-11569079D02*
X14996134Y-11550031D01*
X14996134Y-11550031D02*
X15005658Y-11521460D01*
X15005658Y-11521460D02*
X15015182Y-11473841D01*
X15015182Y-11473841D02*
X15015182Y-11435746D01*
X15015182Y-11435746D02*
X15005658Y-11388127D01*
X15005658Y-11388127D02*
X14996134Y-11359555D01*
X14996134Y-11359555D02*
X14986611Y-11340508D01*
X14986611Y-11340508D02*
X14967563Y-11311936D01*
X14967563Y-11311936D02*
X14958039Y-11302412D01*
M02*
