%TF.GenerationSoftware,KiCad,Pcbnew,9.0.0*%
%TF.CreationDate,2025-04-03T15:01:12-04:00*%
%TF.ProjectId,Shield,53686965-6c64-42e6-9b69-6361645f7063,rev?*%
%TF.SameCoordinates,Original*%
%TF.FileFunction,Soldermask,Top*%
%TF.FilePolarity,Negative*%
%FSLAX46Y46*%
G04 Gerber Fmt 4.6, Leading zero omitted, Abs format (unit mm)*
G04 Created by KiCad (PCBNEW 9.0.0) date 2025-04-03 15:01:12*
%MOMM*%
%LPD*%
G01*
G04 APERTURE LIST*
G04 Aperture macros list*
%AMRoundRect*
0 Rectangle with rounded corners*
0 $1 Rounding radius*
0 $2 $3 $4 $5 $6 $7 $8 $9 X,Y pos of 4 corners*
0 Add a 4 corners polygon primitive as box body*
4,1,4,$2,$3,$4,$5,$6,$7,$8,$9,$2,$3,0*
0 Add four circle primitives for the rounded corners*
1,1,$1+$1,$2,$3*
1,1,$1+$1,$4,$5*
1,1,$1+$1,$6,$7*
1,1,$1+$1,$8,$9*
0 Add four rect primitives between the rounded corners*
20,1,$1+$1,$2,$3,$4,$5,0*
20,1,$1+$1,$4,$5,$6,$7,0*
20,1,$1+$1,$6,$7,$8,$9,0*
20,1,$1+$1,$8,$9,$2,$3,0*%
G04 Aperture macros list end*
%ADD10R,1.700000X1.700000*%
%ADD11O,1.700000X1.700000*%
%ADD12C,1.600000*%
%ADD13O,1.600000X1.600000*%
%ADD14C,2.000000*%
%ADD15C,3.200000*%
%ADD16R,1.800000X1.800000*%
%ADD17C,1.800000*%
%ADD18R,2.000000X2.000000*%
%ADD19R,1.524000X1.524000*%
%ADD20C,1.524000*%
%ADD21RoundRect,0.102000X-0.750000X0.750000X-0.750000X-0.750000X0.750000X-0.750000X0.750000X0.750000X0*%
%ADD22C,1.704000*%
G04 APERTURE END LIST*
D10*
%TO.C,J1*%
X127940000Y-97460000D03*
D11*
X130480000Y-97460000D03*
X133020000Y-97460000D03*
X135560000Y-97460000D03*
X138100000Y-97460000D03*
X140640000Y-97460000D03*
X143180000Y-97460000D03*
X145720000Y-97460000D03*
%TD*%
D10*
%TO.C,J3*%
X150800000Y-97460000D03*
D11*
X153340000Y-97460000D03*
X155880000Y-97460000D03*
X158420000Y-97460000D03*
X160960000Y-97460000D03*
X163500000Y-97460000D03*
%TD*%
D10*
%TO.C,J2*%
X118796000Y-49200000D03*
D11*
X121336000Y-49200000D03*
X123876000Y-49200000D03*
X126416000Y-49200000D03*
X128956000Y-49200000D03*
X131496000Y-49200000D03*
X134036000Y-49200000D03*
X136576000Y-49200000D03*
X139116000Y-49200000D03*
X141656000Y-49200000D03*
%TD*%
D10*
%TO.C,J4*%
X145720000Y-49200000D03*
D11*
X148260000Y-49200000D03*
X150800000Y-49200000D03*
X153340000Y-49200000D03*
X155880000Y-49200000D03*
X158420000Y-49200000D03*
X160960000Y-49200000D03*
X163500000Y-49200000D03*
%TD*%
D12*
%TO.C,R1*%
X140640000Y-64440000D03*
D13*
X150800000Y-64440000D03*
%TD*%
D12*
%TO.C,R4*%
X150800000Y-59360000D03*
D13*
X140640000Y-59360000D03*
%TD*%
D12*
%TO.C,R5*%
X133020000Y-64440000D03*
D13*
X122860000Y-64440000D03*
%TD*%
D12*
%TO.C,R2*%
X150800000Y-69520000D03*
D13*
X140640000Y-69520000D03*
%TD*%
D14*
%TO.C,C3*%
X117860000Y-77140000D03*
X122860000Y-77140000D03*
%TD*%
D15*
%TO.C,MH1*%
X115240000Y-49200000D03*
%TD*%
D16*
%TO.C,D2*%
X120320000Y-56820000D03*
D17*
X122860000Y-56820000D03*
%TD*%
D12*
%TO.C,R7*%
X109500000Y-85580000D03*
D13*
X109500000Y-75420000D03*
%TD*%
D16*
%TO.C,D1*%
X127940000Y-56820000D03*
D17*
X130480000Y-56820000D03*
%TD*%
D12*
%TO.C,R8*%
X103500000Y-85500000D03*
D13*
X103500000Y-75340000D03*
%TD*%
D18*
%TO.C,C2*%
X135480000Y-87300000D03*
D14*
X130480000Y-87300000D03*
%TD*%
D12*
%TO.C,R6*%
X122860000Y-71115000D03*
D13*
X133020000Y-71115000D03*
%TD*%
D19*
%TO.C,J5*%
X117780000Y-86380000D03*
D20*
X117780000Y-88380000D03*
X117780000Y-90380000D03*
X117780000Y-92380000D03*
%TD*%
D21*
%TO.C,U1*%
X160960000Y-60630000D03*
D22*
X160960000Y-63170000D03*
X160960000Y-65710000D03*
X160960000Y-68250000D03*
X158420000Y-60630000D03*
X158420000Y-63170000D03*
X158420000Y-65710000D03*
X158420000Y-68250000D03*
%TD*%
D18*
%TO.C,C1*%
X143180000Y-87300000D03*
D14*
X148180000Y-87300000D03*
%TD*%
D15*
%TO.C,MH2*%
X113970000Y-97460000D03*
%TD*%
%TO.C,MH3*%
X166040000Y-64440000D03*
%TD*%
D12*
%TO.C,R3*%
X140640000Y-54280000D03*
D13*
X150800000Y-54280000D03*
%TD*%
D15*
%TO.C,MH4*%
X166040000Y-92380000D03*
%TD*%
M02*
